<svg version="1.1" xmlns="http://www.w3.org/2000/svg" viewBox="0 0 1191.5643005371094 737.32275390625" width="2383.1286010742188" height="1474.6455078125">
  <!-- svg-source:excalidraw -->
  
  <defs>
    <style class="style-fonts">
      @font-face {
        font-family: "Virgil";
        src: url("https://unpkg.com/revedraw@1.0.0-alpha.7/dist/excalidraw-assets/Virgil.woff2");
      }
      @font-face {
        font-family: "Cascadia";
        src: url("https://unpkg.com/revedraw@1.0.0-alpha.7/dist/excalidraw-assets/Cascadia.woff2");
      }
    </style>
    
  </defs>
  <rect x="0" y="0" width="1191.5643005371094" height="737.32275390625" fill="#ffffff"></rect><g stroke-linecap="round" transform="translate(113.26971435546875 177.55966186523438) rotate(0 97.41769409179688 42.404449462890625)"><path d="M73.03 2.14 C85.73 -0.21, 101.69 -0.7, 115.52 0.41 C129.36 1.52, 144.67 5.19, 156.05 8.81 C167.43 12.43, 177.31 16.66, 183.81 22.13 C190.31 27.6, 194.67 35.37, 195.03 41.63 C195.38 47.9, 191.59 54.19, 185.93 59.72 C180.26 65.25, 171.57 70.73, 161.06 74.8 C150.55 78.87, 136.62 82.51, 122.87 84.13 C109.11 85.75, 92.28 85.74, 78.52 84.53 C64.77 83.32, 51.44 80.59, 40.35 76.86 C29.25 73.14, 18.57 67.73, 11.93 62.19 C5.29 56.64, 1.22 49.66, 0.5 43.57 C-0.21 37.49, 2.27 31.25, 7.66 25.69 C13.04 20.13, 21.02 14.41, 32.79 10.21 C44.57 6.01, 69.35 2.02, 78.3 0.48 C87.25 -1.06, 85.93 0.27, 86.49 0.98 M75.68 -0.22 C88.34 -1.89, 105.16 0.58, 118.76 2.24 C132.36 3.9, 146.5 6.14, 157.27 9.72 C168.03 13.29, 177.13 18.33, 183.35 23.69 C189.57 29.04, 194.1 35.55, 194.58 41.87 C195.06 48.19, 191.84 56.19, 186.21 61.63 C180.58 67.06, 171.5 70.64, 160.79 74.48 C150.09 78.33, 136 83.33, 121.99 84.68 C107.98 86.02, 90.91 84.21, 76.73 82.53 C62.54 80.86, 47.71 77.95, 36.88 74.63 C26.04 71.32, 17.76 67.95, 11.72 62.63 C5.67 57.32, 0.88 48.86, 0.6 42.76 C0.32 36.65, 4.23 31.42, 10.05 26.03 C15.87 20.64, 24.87 14.61, 35.54 10.41 C46.2 6.21, 67.73 2.47, 74.03 0.83 C80.33 -0.81, 72.87 -0.07, 73.34 0.57" stroke="#1e1e1e" stroke-width="1" fill="none"></path></g><g transform="translate(157.4747468234736 209.97963756043282) rotate(0 53.32794952392578 10)"><text x="53.32794952392578" y="0" font-family="HanziPen SC, HanziPen Remote, Virgil, KaiTi, Segoe UI Emoji" font-size="16px" fill="#1e1e1e" text-anchor="middle" style="white-space: pre;" direction="ltr" dominant-baseline="text-before-edge">Bounded Context</text></g><g stroke-linecap="round" transform="translate(10 441.89727783203125) rotate(0 97.41769409179688 42.404449462890625)"><path d="M118.66 1.49 C131.85 2.16, 147.08 4.76, 158.27 8.64 C169.46 12.52, 179.89 19.24, 185.82 24.77 C191.75 30.3, 194.09 35.68, 193.84 41.81 C193.59 47.94, 190.47 55.77, 184.33 61.56 C178.18 67.34, 167.92 72.64, 156.97 76.49 C146.03 80.34, 132.45 83.35, 118.66 84.64 C104.88 85.94, 87.88 85.66, 74.27 84.27 C60.66 82.88, 47.95 80.27, 37 76.32 C26.05 72.36, 14.81 66.38, 8.57 60.54 C2.33 54.7, -0.72 47.53, -0.45 41.28 C-0.19 35.03, 3.79 28.28, 10.18 23.04 C16.57 17.81, 26.99 13.59, 37.88 9.88 C48.78 6.17, 61.29 2.16, 75.55 0.78 C89.81 -0.6, 115.02 1.33, 123.44 1.59 C131.87 1.85, 126.62 1.62, 126.07 2.35 M115.44 1.54 C128.66 1.82, 143.15 4.88, 154.79 8.52 C166.42 12.17, 178.49 17.96, 185.24 23.4 C192 28.84, 195.01 35.32, 195.33 41.16 C195.65 47, 192.7 52.95, 187.16 58.45 C181.62 63.95, 172.69 69.91, 162.08 74.13 C151.47 78.35, 137.33 82.29, 123.5 83.8 C109.67 85.31, 93.1 84.26, 79.11 83.19 C65.11 82.12, 50.9 80.81, 39.51 77.36 C28.12 73.91, 17.52 68.14, 10.75 62.48 C3.98 56.82, -0.84 49.84, -1.09 43.4 C-1.34 36.96, 3.41 29.15, 9.23 23.84 C15.04 18.54, 23.15 15.14, 33.82 11.56 C44.48 7.97, 59.42 4.22, 73.21 2.35 C87 0.49, 109.54 0.47, 116.54 0.36 C123.54 0.25, 115.43 1.02, 115.22 1.67" stroke="#1e1e1e" stroke-width="1" fill="none"></path></g><g transform="translate(71.67700970189156 464.3172535272297) rotate(0 35.85597229003906 20)"><text x="35.85597229003906" y="0" font-family="HanziPen SC, HanziPen Remote, Virgil, KaiTi, Segoe UI Emoji" font-size="16px" fill="#1e1e1e" text-anchor="middle" style="white-space: pre;" direction="ltr" dominant-baseline="text-before-edge">Ubiquitous </text><text x="35.85597229003906" y="20" font-family="HanziPen SC, HanziPen Remote, Virgil, KaiTi, Segoe UI Emoji" font-size="16px" fill="#1e1e1e" text-anchor="middle" style="white-space: pre;" direction="ltr" dominant-baseline="text-before-edge">Language</text></g><g stroke-linecap="round" transform="translate(349.8665466308594 372.3434143066406) rotate(0 97.41769409179688 42.404449462890625)"><path d="M50.35 5.48 C61.46 2.04, 79.37 -0.5, 93.43 -0.95 C107.49 -1.4, 121.75 0.33, 134.72 2.77 C147.68 5.21, 161.65 8.98, 171.2 13.71 C180.76 18.45, 188.24 25.3, 192.06 31.18 C195.89 37.06, 196.67 42.85, 194.14 48.99 C191.61 55.13, 185.15 63.05, 176.9 68.04 C168.65 73.02, 157.14 76.17, 144.64 78.88 C132.14 81.59, 116.28 83.84, 101.9 84.31 C87.53 84.78, 71.48 83.9, 58.4 81.7 C45.32 79.51, 32.43 75.9, 23.42 71.12 C14.41 66.33, 8.02 58.91, 4.33 53 C0.65 47.1, -1.08 41.42, 1.31 35.67 C3.7 29.92, 9.43 23.81, 18.65 18.5 C27.87 13.2, 49.09 6.26, 56.65 3.83 C64.22 1.4, 63.26 3.12, 64.02 3.92 M80.73 2.13 C93.64 0.73, 110.99 0.62, 124.55 2.14 C138.11 3.67, 151.84 7.06, 162.11 11.27 C172.37 15.48, 180.8 21.66, 186.14 27.42 C191.49 33.19, 194.64 39.93, 194.17 45.86 C193.7 51.78, 190.11 57.74, 183.3 62.96 C176.5 68.17, 164.71 73.68, 153.35 77.16 C142 80.64, 128.84 83.02, 115.17 83.84 C101.51 84.66, 85.14 83.53, 71.36 82.07 C57.57 80.61, 43.34 79.03, 32.47 75.09 C21.61 71.15, 11.33 64.15, 6.18 58.44 C1.02 52.73, 0.43 46.79, 1.54 40.83 C2.66 34.86, 6.43 28.21, 12.87 22.67 C19.32 17.13, 28.92 11.05, 40.22 7.58 C51.52 4.11, 73.99 2.79, 80.68 1.85 C87.36 0.91, 79.97 1.55, 80.32 1.94" stroke="#1e1e1e" stroke-width="1" fill="none"></path></g><g transform="translate(406.89556896702834 404.763390001839) rotate(0 40.50395965576172 10)"><text x="40.50395965576172" y="0" font-family="HanziPen SC, HanziPen Remote, Virgil, KaiTi, Segoe UI Emoji" font-size="16px" fill="#1e1e1e" text-anchor="middle" style="white-space: pre;" direction="ltr" dominant-baseline="text-before-edge">Context Map</text></g><g stroke-linecap="round" transform="translate(389.6505432128906 10) rotate(0 97.41769409179688 42.404449462890625)"><path d="M60.22 2.19 C71.94 -0.56, 89.33 -0.06, 103.43 0.63 C117.53 1.32, 132.45 3.24, 144.82 6.32 C157.19 9.4, 169.67 14.11, 177.66 19.12 C185.64 24.13, 190.43 30.31, 192.73 36.38 C195.03 42.45, 195.51 49.77, 191.46 55.54 C187.41 61.31, 178.16 66.77, 168.44 70.99 C158.73 75.22, 146.06 78.73, 133.16 80.89 C120.27 83.06, 104.93 84.11, 91.07 83.97 C77.22 83.83, 62.46 83, 50.04 80.05 C37.62 77.11, 24.56 71.45, 16.55 66.3 C8.54 61.15, 3.87 55.22, 1.96 49.15 C0.05 43.08, 1.17 35.72, 5.1 29.89 C9.04 24.06, 14.98 18.78, 25.56 14.16 C36.13 9.55, 60.04 4.29, 68.56 2.2 C77.08 0.1, 76.16 1.04, 76.67 1.59 M101.98 0.19 C115.27 -0.5, 131.31 1.13, 143.89 3.9 C156.48 6.68, 169.03 11.62, 177.47 16.82 C185.9 22.01, 192.13 29.08, 194.5 35.06 C196.86 41.04, 195.51 46.68, 191.65 52.69 C187.78 58.7, 180.63 66.29, 171.31 71.13 C161.98 75.98, 148.87 79.56, 135.7 81.77 C122.52 83.97, 106.13 84.93, 92.26 84.37 C78.39 83.81, 64.8 80.97, 52.49 78.39 C40.19 75.81, 26.81 73.42, 18.43 68.87 C10.05 64.32, 4.62 57.42, 2.21 51.09 C-0.19 44.75, 0.46 36.92, 4 30.86 C7.54 24.79, 14.12 19.36, 23.46 14.69 C32.79 10.02, 46.95 5.21, 60.02 2.84 C73.09 0.48, 95.12 0.81, 101.9 0.5 C108.68 0.2, 100.71 0.26, 100.71 1.03" stroke="#1e1e1e" stroke-width="1" fill="none"></path></g><g transform="translate(451.0235596896846 32.41997569519842) rotate(0 36.15996551513672 20)"><text x="36.15996551513672" y="0" font-family="HanziPen SC, HanziPen Remote, Virgil, KaiTi, Segoe UI Emoji" font-size="16px" fill="#1e1e1e" text-anchor="middle" style="white-space: pre;" direction="ltr" dominant-baseline="text-before-edge">Contineous </text><text x="36.15996551513672" y="20" font-family="HanziPen SC, HanziPen Remote, Virgil, KaiTi, Segoe UI Emoji" font-size="16px" fill="#1e1e1e" text-anchor="middle" style="white-space: pre;" direction="ltr" dominant-baseline="text-before-edge">Integration</text></g><g stroke-linecap="round" transform="translate(714.7998046875 474.47296142578125) rotate(0 97.41769409179688 42.404449462890625)"><path d="M51.43 4.41 C62.76 1.19, 79.3 0.5, 93.43 0.17 C107.55 -0.16, 123.23 -0.07, 136.18 2.43 C149.12 4.92, 161.77 10.52, 171.09 15.14 C180.42 19.75, 188.43 24.42, 192.13 30.12 C195.83 35.82, 196.05 43.12, 193.3 49.35 C190.54 55.57, 183.94 62.29, 175.59 67.47 C167.24 72.65, 155.3 77.67, 143.2 80.42 C131.09 83.18, 116.96 83.71, 102.97 84.01 C88.98 84.31, 72.36 84.34, 59.27 82.24 C46.19 80.13, 33.78 76.13, 24.46 71.4 C15.14 66.67, 7.1 59.85, 3.33 53.85 C-0.43 47.85, -0.66 41.27, 1.88 35.39 C4.43 29.5, 8.34 23.92, 18.61 18.54 C28.88 13.16, 53.71 5.9, 63.51 3.11 C73.3 0.32, 76.58 1.16, 77.36 1.81 M113.97 2.15 C127.28 2.69, 142.72 6.04, 154.34 9.45 C165.96 12.87, 177.11 17.39, 183.7 22.63 C190.3 27.88, 193.21 34.87, 193.9 40.9 C194.59 46.94, 193.2 53.44, 187.85 58.83 C182.49 64.23, 172.62 69.03, 161.76 73.27 C150.9 77.5, 136.59 82.49, 122.69 84.23 C108.79 85.97, 91.9 84.89, 78.35 83.72 C64.8 82.55, 52.35 80.69, 41.37 77.23 C30.39 73.78, 19.42 68.55, 12.47 62.99 C5.52 57.42, 0.42 49.86, -0.33 43.83 C-1.07 37.81, 2.47 32.35, 8 26.86 C13.54 21.36, 22.18 15.2, 32.88 10.87 C43.58 6.53, 58.49 2.4, 72.21 0.86 C85.93 -0.69, 107.98 1.43, 115.2 1.58 C122.42 1.74, 115.62 1.22, 115.52 1.79" stroke="#1e1e1e" stroke-width="1" fill="none"></path></g><g transform="translate(753.6528550388057 506.8929371209797) rotate(0 58.679931640625 10)"><text x="58.679931640625" y="0" font-family="HanziPen SC, HanziPen Remote, Virgil, KaiTi, Segoe UI Emoji" font-size="16px" fill="#1e1e1e" text-anchor="middle" style="white-space: pre;" direction="ltr" dominant-baseline="text-before-edge">Open Host Service</text></g><g stroke-linecap="round" transform="translate(888.88134765625 332.14886474609375) rotate(0 97.41769409179688 42.404449462890625)"><path d="M123.04 2.32 C136.31 3.2, 149.51 6.9, 160.27 10.93 C171.03 14.95, 181.98 20.96, 187.59 26.48 C193.2 32.01, 194.7 38.25, 193.92 44.08 C193.15 49.91, 189.39 56.16, 182.95 61.46 C176.51 66.75, 166.46 71.96, 155.3 75.86 C144.15 79.76, 130.02 83.67, 115.99 84.87 C101.97 86.08, 84.76 84.82, 71.16 83.1 C57.57 81.39, 44.78 78.62, 34.42 74.6 C24.05 70.58, 14.7 64.54, 8.98 58.96 C3.25 53.37, -0.4 47.12, 0.07 41.08 C0.55 35.04, 5.04 28.25, 11.81 22.71 C18.59 17.18, 29.35 11.62, 40.73 7.86 C52.11 4.1, 65.82 0.98, 80.11 0.16 C94.41 -0.66, 118.25 2.35, 126.51 2.92 C134.77 3.49, 130.15 3.01, 129.67 3.59 M64.22 3.13 C76.01 0.42, 92.23 -1.31, 106.1 -0.68 C119.97 -0.06, 135.42 3.54, 147.44 6.89 C159.46 10.23, 170.67 14.49, 178.23 19.37 C185.79 24.26, 190.63 30.42, 192.77 36.19 C194.92 41.95, 195.27 47.82, 191.08 53.96 C186.89 60.1, 177.4 68.19, 167.63 73.04 C157.87 77.88, 145.51 81.15, 132.49 83.02 C119.48 84.88, 103.74 84.91, 89.55 84.23 C75.35 83.55, 59.34 82.1, 47.33 78.94 C35.32 75.77, 25.14 70.28, 17.49 65.24 C9.83 60.2, 3.63 54.63, 1.39 48.68 C-0.85 42.74, -0.35 35.34, 4.04 29.56 C8.42 23.78, 17.84 18.25, 27.69 14.01 C37.55 9.77, 57.18 5.87, 63.18 4.11 C69.18 2.35, 63.4 3.06, 63.69 3.43" stroke="#1e1e1e" stroke-width="1" fill="none"></path></g><g transform="translate(951.3103638889033 364.56884044129214) rotate(0 35.103965759277344 10)"><text x="35.103965759277344" y="0" font-family="HanziPen SC, HanziPen Remote, Virgil, KaiTi, Segoe UI Emoji" font-size="16px" fill="#1e1e1e" text-anchor="middle" style="white-space: pre;" direction="ltr" dominant-baseline="text-before-edge">Conformist</text></g><g stroke-linecap="round" transform="translate(535.5487365722656 588.4655151367188) rotate(0 97.41769409179688 42.404449462890625)"><path d="M103.92 0.84 C117.39 0.58, 133.67 1.77, 145.86 4.56 C158.06 7.35, 169.29 12.37, 177.09 17.58 C184.89 22.78, 190.48 29.53, 192.66 35.78 C194.84 42.04, 193.85 49.39, 190.16 55.1 C186.47 60.81, 179.88 65.51, 170.53 70.06 C161.17 74.62, 147.19 79.82, 134.04 82.43 C120.89 85.04, 105.7 86.2, 91.63 85.7 C77.56 85.2, 61.86 82.5, 49.6 79.41 C37.34 76.32, 26.1 72.02, 18.09 67.16 C10.08 62.29, 3.96 56.25, 1.54 50.22 C-0.88 44.19, -0.24 37, 3.59 30.98 C7.42 24.96, 14.87 18.65, 24.54 14.08 C34.2 9.51, 46.79 5.82, 61.57 3.58 C76.34 1.34, 103.11 0.98, 113.2 0.63 C123.29 0.29, 122.26 0.87, 122.11 1.49 M137.19 4.16 C150.06 5.91, 164.18 10.53, 173.38 15.01 C182.58 19.5, 189.24 24.89, 192.4 31.06 C195.57 37.22, 195.57 45.86, 192.38 51.99 C189.19 58.12, 181.55 63.02, 173.27 67.83 C165 72.64, 154.91 77.92, 142.73 80.84 C130.55 83.77, 114.59 85.43, 100.19 85.39 C85.8 85.34, 69.33 83.03, 56.38 80.58 C43.43 78.13, 31.49 75.26, 22.47 70.68 C13.44 66.09, 5.56 59.34, 2.23 53.08 C-1.09 46.82, -0.49 39.03, 2.52 33.1 C5.53 27.16, 11.64 22.19, 20.28 17.47 C28.91 12.75, 41.56 7.7, 54.34 4.8 C67.12 1.9, 83.03 0.48, 96.96 0.09 C110.89 -0.31, 131.28 1.89, 137.93 2.42 C144.57 2.96, 137.55 2.53, 136.81 3.3" stroke="#1e1e1e" stroke-width="1" fill="none"></path></g><g transform="translate(586.3697816135127 620.8854908319172) rotate(0 46.711936950683594 10)"><text x="46.711936950683594" y="0" font-family="HanziPen SC, HanziPen Remote, Virgil, KaiTi, Segoe UI Emoji" font-size="16px" fill="#1e1e1e" text-anchor="middle" style="white-space: pre;" direction="ltr" dominant-baseline="text-before-edge">Seperate Ways</text></g><g stroke-linecap="round" transform="translate(272.2548522949219 642.5138549804688) rotate(0 97.41769409179688 42.404449462890625)"><path d="M124.34 1.71 C137.38 2.46, 151.87 6.14, 162.48 10.15 C173.1 14.16, 182.53 19.81, 188.01 25.77 C193.5 31.73, 196.47 39.71, 195.39 45.92 C194.31 52.12, 188.45 57.77, 181.53 63 C174.62 68.24, 165.16 73.84, 153.89 77.33 C142.62 80.83, 127.94 82.96, 113.9 83.98 C99.86 85, 83.26 85.1, 69.66 83.44 C56.06 81.78, 42.55 78.27, 32.28 74.02 C22.01 69.78, 13.28 63.77, 8.02 57.96 C2.76 52.14, -0.06 45.01, 0.71 39.12 C1.48 33.22, 5.73 27.77, 12.64 22.58 C19.54 17.39, 30.58 11.58, 42.14 7.98 C53.7 4.38, 67.82 1.77, 82.01 0.96 C96.19 0.15, 119.31 2.56, 127.26 3.11 C135.22 3.65, 130.09 3.68, 129.75 4.22 M70.04 2.1 C82.26 -0.36, 98.42 -0.52, 112.52 0.19 C126.62 0.9, 143.03 2.52, 154.65 6.37 C166.28 10.22, 175.49 17.52, 182.26 23.28 C189.02 29.04, 194.3 35.13, 195.26 40.95 C196.22 46.77, 193.57 52.67, 188.03 58.19 C182.49 63.71, 172.41 70.01, 162.02 74.07 C151.63 78.12, 139.07 80.74, 125.67 82.51 C112.28 84.28, 95.84 85.58, 81.64 84.68 C67.44 83.79, 51.89 80.64, 40.46 77.15 C29.03 73.66, 19.75 68.93, 13.07 63.77 C6.4 58.6, 1.34 52.46, 0.41 46.18 C-0.53 39.9, 2.37 32.06, 7.47 26.09 C12.57 20.13, 20.75 14.54, 31.01 10.39 C41.27 6.23, 62.51 2.42, 69.05 1.18 C75.59 -0.07, 69.82 2.39, 70.27 2.92" stroke="#1e1e1e" stroke-width="1" fill="none"></path></g><g transform="translate(320.9398804904658 664.9338306756672) rotate(0 48.84795379638675 20)"><text x="48.84795379638672" y="0" font-family="HanziPen SC, HanziPen Remote, Virgil, KaiTi, Segoe UI Emoji" font-size="16px" fill="#1e1e1e" text-anchor="middle" style="white-space: pre;" direction="ltr" dominant-baseline="text-before-edge">Anticorruption </text><text x="48.84795379638672" y="20" font-family="HanziPen SC, HanziPen Remote, Virgil, KaiTi, Segoe UI Emoji" font-size="16px" fill="#1e1e1e" text-anchor="middle" style="white-space: pre;" direction="ltr" dominant-baseline="text-before-edge">Layer</text></g><g stroke-linecap="round" transform="translate(733.6714782714844 36.633514404296875) rotate(0 97.41769409179688 42.404449462890625)"><path d="M57.12 3.91 C68.65 1.17, 85.46 0.76, 99.82 0.78 C114.17 0.81, 130.7 1.22, 143.27 4.06 C155.85 6.9, 166.95 12.62, 175.27 17.82 C183.59 23.02, 190.5 29.38, 193.18 35.27 C195.86 41.16, 194.89 47.33, 191.36 53.16 C187.83 59, 181.02 65.46, 171.98 70.28 C162.93 75.1, 150.08 79.6, 137.08 82.1 C124.07 84.6, 108.15 85.63, 93.93 85.3 C79.72 84.96, 64.06 82.93, 51.79 80.08 C39.52 77.23, 28.61 73.1, 20.33 68.19 C12.06 63.28, 4.95 56.82, 2.16 50.6 C-0.63 44.39, -0.07 36.93, 3.61 30.92 C7.28 24.91, 11.92 19.5, 24.21 14.55 C36.51 9.61, 65.41 3.62, 77.39 1.24 C89.36 -1.13, 95.84 -0.46, 96.07 0.29 M86.11 1.19 C98.94 0.03, 114.56 0.02, 128.17 1.99 C141.77 3.96, 157.36 8.51, 167.72 13 C178.08 17.5, 185.98 23.35, 190.33 28.99 C194.67 34.62, 195.53 40.59, 193.81 46.79 C192.08 52.99, 187.5 60.85, 179.97 66.18 C172.44 71.52, 160.48 75.83, 148.61 78.78 C136.75 81.73, 122.66 83.14, 108.79 83.9 C94.92 84.65, 78.62 85.19, 65.38 83.31 C52.14 81.43, 39.11 77.11, 29.35 72.64 C19.59 68.17, 11.64 62.56, 6.83 56.49 C2.02 50.42, -0.78 42.54, 0.5 36.22 C1.78 29.89, 7.08 23.58, 14.51 18.51 C21.95 13.45, 33.03 9.11, 45.1 5.85 C57.18 2.58, 80.25 -0.28, 86.96 -1.06 C93.67 -1.83, 85.15 0.18, 85.37 1.19" stroke="#1e1e1e" stroke-width="1" fill="none"></path></g><g transform="translate(786.8045045139033 69.05349009949529) rotate(0 44.39995574951172 10)"><text x="44.39995574951172" y="0" font-family="HanziPen SC, HanziPen Remote, Virgil, KaiTi, Segoe UI Emoji" font-size="16px" fill="#1e1e1e" text-anchor="middle" style="white-space: pre;" direction="ltr" dominant-baseline="text-before-edge">Shared Kernel</text></g><g stroke-linecap="round" transform="translate(986.7289123535156 579.0668334960938) rotate(0 97.41769409179688 42.404449462890625)"><path d="M56.78 4.8 C68.1 1.83, 83.54 -0.18, 97.63 -0.22 C111.72 -0.27, 128.4 1.82, 141.32 4.52 C154.24 7.23, 166.6 11.14, 175.15 16.01 C183.69 20.88, 189.7 27.69, 192.6 33.77 C195.5 39.85, 195.67 46.65, 192.56 52.49 C189.44 58.33, 182.77 64.2, 173.89 68.82 C165.02 73.45, 152.22 77.41, 139.33 80.24 C126.43 83.07, 110.64 85.71, 96.54 85.8 C82.43 85.9, 67.34 83.6, 54.71 80.79 C42.08 77.98, 29.62 73.67, 20.76 68.93 C11.89 64.2, 4.58 58.31, 1.51 52.4 C-1.57 46.48, -1.13 39.52, 2.3 33.42 C5.74 27.32, 12.39 20.82, 22.11 15.79 C31.84 10.76, 53.05 5.4, 60.67 3.23 C68.28 1.06, 67.07 2.27, 67.81 2.76 M83.97 1.8 C96.98 0.78, 114.56 1.44, 128.12 3.03 C141.68 4.63, 155.31 7.25, 165.34 11.34 C175.36 15.43, 183.21 21.87, 188.26 27.58 C193.32 33.28, 196.79 39.41, 195.66 45.58 C194.53 51.76, 189.04 59.23, 181.51 64.63 C173.97 70.02, 162.12 74.51, 150.43 77.94 C138.74 81.38, 125.17 84.22, 111.36 85.25 C97.55 86.27, 81.08 86.15, 67.55 84.09 C54.02 82.04, 40.63 77.47, 30.16 72.94 C19.7 68.4, 9.95 62.68, 4.77 56.88 C-0.42 51.07, -2.33 44.07, -0.94 38.11 C0.46 32.14, 5.92 26.5, 13.15 21.09 C20.38 15.68, 30.56 8.99, 42.44 5.65 C54.32 2.32, 77.33 1.93, 84.44 1.08 C91.56 0.22, 84.99 -0.08, 85.14 0.54" stroke="#1e1e1e" stroke-width="1" fill="none"></path></g><g transform="translate(1023.5659486057002 611.4868091912922) rotate(0 60.695945739746094 10)"><text x="60.695945739746094" y="0" font-family="HanziPen SC, HanziPen Remote, Virgil, KaiTi, Segoe UI Emoji" font-size="16px" fill="#1e1e1e" text-anchor="middle" style="white-space: pre;" direction="ltr" dominant-baseline="text-before-edge">Published Language</text></g><g stroke-linecap="round" transform="translate(879.3576049804688 152.69970703125) rotate(0 97.41769409179688 42.404449462890625)"><path d="M133.38 3.81 C146.24 5.66, 159.9 10.34, 169.41 14.74 C178.91 19.13, 186.3 24.39, 190.41 30.17 C194.51 35.94, 196.14 43.17, 194.04 49.38 C191.93 55.6, 185.92 62.37, 177.78 67.44 C169.65 72.51, 157.6 76.89, 145.22 79.78 C132.84 82.67, 117.33 84.39, 103.5 84.79 C89.67 85.2, 75.15 84.48, 62.22 82.2 C49.3 79.93, 35.54 75.86, 25.93 71.14 C16.32 66.43, 8.52 59.86, 4.56 53.91 C0.6 47.96, -0.12 41.34, 2.15 35.45 C4.42 29.55, 10.27 23.62, 18.15 18.54 C26.03 13.46, 37.28 7.95, 49.42 4.98 C61.56 2.01, 76.35 0.89, 90.98 0.73 C105.6 0.57, 129.1 3.31, 137.19 4.03 C145.28 4.74, 140.04 4.56, 139.51 5 M85.78 0.94 C98.56 -0.6, 114.34 -0.25, 127.57 1.78 C140.8 3.81, 155.06 8.72, 165.16 13.12 C175.26 17.52, 183.21 22.73, 188.16 28.17 C193.12 33.61, 196.07 39.6, 194.87 45.77 C193.66 51.95, 188.17 59.82, 180.94 65.22 C173.71 70.61, 163.09 74.94, 151.5 78.16 C139.9 81.38, 125.5 84.02, 111.37 84.53 C97.25 85.04, 80.41 83.39, 66.74 81.23 C53.06 79.07, 39.52 75.71, 29.32 71.58 C19.13 67.45, 10.29 62.2, 5.55 56.45 C0.81 50.7, -0.31 43.05, 0.88 37.07 C2.07 31.09, 5.35 25.5, 12.68 20.56 C20.01 15.61, 32.94 10.84, 44.85 7.42 C56.76 3.99, 77.41 1.03, 84.14 0 C90.87 -1.03, 84.8 0.24, 85.24 1.22" stroke="#1e1e1e" stroke-width="1" fill="none"></path></g><g transform="translate(914.6586457492549 175.11968272644842) rotate(0 62.23194122314453 20.000000000000014)"><text x="62.23194122314453" y="0" font-family="HanziPen SC, HanziPen Remote, Virgil, KaiTi, Segoe UI Emoji" font-size="16px" fill="#1e1e1e" text-anchor="middle" style="white-space: pre;" direction="ltr" dominant-baseline="text-before-edge">Customer/Supplier </text><text x="62.23194122314453" y="20" font-family="HanziPen SC, HanziPen Remote, Virgil, KaiTi, Segoe UI Emoji" font-size="16px" fill="#1e1e1e" text-anchor="middle" style="white-space: pre;" direction="ltr" dominant-baseline="text-before-edge">Teams</text></g><g mask="url(#mask-06_57QY2bVQ75PjPKDOEc)" stroke-linecap="round"><g transform="translate(182.12353515625 262.43939208984375) rotate(0 -32.460416001434766 89.36282372038187)"><path d="M-0.13 0.26 C-10.38 10.85, -51.89 34.58, -61.09 64.2 C-70.28 93.81, -56.26 159, -55.29 177.95 M-1.65 -0.65 C-12.06 10.06, -52.77 35.52, -61.78 65.52 C-70.78 95.52, -56.88 160.45, -55.68 179.37" stroke="#1e1e1e" stroke-width="1" fill="none"></path></g><g transform="translate(182.12353515625 262.43939208984375) rotate(0 -32.460416001434766 89.36282372038187)"><path d="M-69.05 153.55 C-65.35 162.95, -59.66 172.05, -55.45 179.59 M-69.78 153.37 C-66.01 157.63, -63.22 163.34, -55.43 180.27" stroke="#1e1e1e" stroke-width="1" fill="none"></path></g><g transform="translate(182.12353515625 262.43939208984375) rotate(0 -32.460416001434766 89.36282372038187)"><path d="M-48.71 150.9 C-51.87 161.17, -53.06 171.17, -55.45 179.59 M-49.43 150.72 C-49.79 155.47, -51.13 161.72, -55.43 180.27" stroke="#1e1e1e" stroke-width="1" fill="none"></path></g></g><mask id="mask-06_57QY2bVQ75PjPKDOEc"><rect x="0" y="0" fill="#fff" width="343.69580078125" height="540.1781163510742"></rect><rect x="87.59127807617188" y="317.0423278808594" fill="#000" width="65.91998291015625" height="20" opacity="1"></rect></mask><g transform="translate(87.59127807617188 317.0423278808594) rotate(0 62.07184107864336 34.75988792936624)"><text x="32.959991455078125" y="0" font-family="HanziPen SC, HanziPen Remote, Virgil, KaiTi, Segoe UI Emoji" font-size="16px" fill="#1e1e1e" text-anchor="middle" style="white-space: pre;" direction="ltr" dominant-baseline="text-before-edge">名称输入</text></g><g mask="url(#mask-KoeWpXm22YoXZWns9Y2yI)" stroke-linecap="round"><g transform="translate(242.28558349609375 175.00485229492188) rotate(0 77.19397574508454 -52.314103627526045)"><path d="M-0.38 0.25 C8.53 -8.58, 27.25 -36.66, 53.11 -53.89 C78.97 -71.12, 137.93 -94.56, 154.77 -103.13 M1.62 -0.66 C10.94 -9.29, 30 -35.44, 55.36 -52.81 C80.72 -70.18, 137.36 -96.22, 153.78 -104.88" stroke="#1e1e1e" stroke-width="1" fill="none"></path></g><g transform="translate(242.28558349609375 175.00485229492188) rotate(0 77.19397574508454 -52.314103627526045)"><path d="M133.52 -84.6 C137.41 -89.66, 146.31 -96.55, 151.99 -106.79 M132.85 -83.28 C136.9 -87.92, 142.13 -92.51, 153.78 -105.03" stroke="#1e1e1e" stroke-width="1" fill="none"></path></g><g transform="translate(242.28558349609375 175.00485229492188) rotate(0 77.19397574508454 -52.314103627526045)"><path d="M124.39 -102.98 C130.6 -103.04, 141.97 -104.98, 151.99 -106.79 M123.71 -101.66 C129.74 -102.22, 137.02 -102.69, 153.78 -105.03" stroke="#1e1e1e" stroke-width="1" fill="none"></path></g></g><mask id="mask-KoeWpXm22YoXZWns9Y2yI"><rect x="0" y="0" fill="#fff" width="497.4784119724088" height="379.26721494078606"></rect><rect x="222.10955047607422" y="111.97586059570312" fill="#000" width="148.31996154785156" height="20" opacity="1"></rect></mask><g transform="translate(222.10955047607422 111.97586059570312) rotate(0 97.37000876510407 10.714888071692705)"><text x="74.15998077392578" y="0" font-family="HanziPen SC, HanziPen Remote, Virgil, KaiTi, Segoe UI Emoji" font-size="16px" fill="#1e1e1e" text-anchor="middle" style="white-space: pre;" direction="ltr" dominant-baseline="text-before-edge">通过它保持模型统一</text></g><g mask="url(#mask-aDwg_EB-FgX82ePB2vgPf)" stroke-linecap="round"><g transform="translate(262.3607177734375 257.8157958984375) rotate(0 59.13364299882923 62.63565031733245)"><path d="M0.96 0.85 C4.18 13.09, -1.36 53.57, 18.19 74.02 C37.74 94.47, 101.63 115.16, 118.26 123.53 M0 0.26 C3.17 12.07, -2.37 51.35, 17.24 72.14 C36.86 92.93, 100.84 116.66, 117.69 125.02" stroke="#1e1e1e" stroke-width="1" fill="none"></path></g><g transform="translate(262.3607177734375 257.8157958984375) rotate(0 59.13364299882923 62.63565031733245)"><path d="M89.17 123.07 C94.66 123.82, 100.55 123.79, 119.44 125.76 M88.73 123.15 C98.12 123.14, 109.89 124.05, 117.26 125.67" stroke="#1e1e1e" stroke-width="1" fill="none"></path></g><g transform="translate(262.3607177734375 257.8157958984375) rotate(0 59.13364299882923 62.63565031733245)"><path d="M97.43 104.28 C101.33 108.95, 105.53 112.75, 119.44 125.76 M96.99 104.37 C103.47 111.28, 112.21 119.09, 117.26 125.67" stroke="#1e1e1e" stroke-width="1" fill="none"></path></g></g><mask id="mask-aDwg_EB-FgX82ePB2vgPf"><rect x="0" y="0" fill="#fff" width="480.26536289115006" height="481.022704343216"></rect><rect x="218.45785522460938" y="311.3697204589844" fill="#000" width="124.17596435546875" height="40" opacity="1"></rect></mask><g transform="translate(218.45785522460938 311.3697204589844) rotate(0 103.03650554765736 9.081725756785573)"><text x="62.087982177734375" y="0" font-family="HanziPen SC, HanziPen Remote, Virgil, KaiTi, Segoe UI Emoji" font-size="16px" fill="#1e1e1e" text-anchor="middle" style="white-space: pre;" direction="ltr" dominant-baseline="text-before-edge">评估/概要了解与</text><text x="62.087982177734375" y="20" font-family="HanziPen SC, HanziPen Remote, Virgil, KaiTi, Segoe UI Emoji" font-size="16px" fill="#1e1e1e" text-anchor="middle" style="white-space: pre;" direction="ltr" dominant-baseline="text-before-edge">上下文图的关系</text></g><g mask="url(#mask-KltQAJoEwsR6ZWkdHETzB)" stroke-linecap="round"><g transform="translate(401.12810674851096 455.7998311992896) rotate(0 -15.571018311241687 92.19742226358605)"><path d="M-0.21 -0.87 C-5.1 11.6, -24.25 42.77, -28.71 73.61 C-33.16 104.45, -27.07 165.52, -26.96 184.17 M-1.78 1.29 C-6.86 13.47, -25.25 40.94, -29.48 71.61 C-33.7 102.27, -27.41 166.62, -27.11 185.26" stroke="#1e1e1e" stroke-width="1" fill="none"></path></g><g transform="translate(401.12810674851096 455.7998311992896) rotate(0 -15.571018311241687 92.19742226358605)"><path d="M-40.31 158.23 C-34.6 169.37, -31.54 177.39, -25.59 183.71 M-37.95 157.24 C-35.52 164.75, -33.17 174.01, -27.05 185.43" stroke="#1e1e1e" stroke-width="1" fill="none"></path></g><g transform="translate(401.12810674851096 455.7998311992896) rotate(0 -15.571018311241687 92.19742226358605)"><path d="M-19.82 157.13 C-21.36 168.62, -25.55 177.04, -25.59 183.71 M-17.45 156.15 C-20.78 163.97, -24.17 173.54, -27.05 185.43" stroke="#1e1e1e" stroke-width="1" fill="none"></path></g></g><mask id="mask-KltQAJoEwsR6ZWkdHETzB"><rect x="0" y="0" fill="#fff" width="530.1748231161625" height="740.3993953022263"></rect><rect x="314.40140533447266" y="519.179443359375" fill="#000" width="115.35997009277344" height="20" opacity="1"></rect></mask><g transform="translate(314.40140533447266 519.179443359375) rotate(0 71.15568310279662 28.817810103500648)"><text x="57.67998504638672" y="0" font-family="HanziPen SC, HanziPen Remote, Virgil, KaiTi, Segoe UI Emoji" font-size="16px" fill="#1e1e1e" text-anchor="middle" style="white-space: pre;" direction="ltr" dominant-baseline="text-before-edge">单向转换与隔离</text></g><g mask="url(#mask-WOY-WgPZt4FsoURN_Yvya)" stroke-linecap="round"><g transform="translate(507.4247489171926 449.3924156902784) rotate(0 28.5068544020682 75.05375886968997)"><path d="M-1.05 0.22 C1.09 4.72, 7.13 11.51, 12.46 27.37 C17.79 43.23, 23.44 74.81, 30.92 95.38 C38.39 115.96, 53.08 141.92, 57.32 150.82 M0.6 -0.72 C2.58 3.43, 6.45 9.54, 11.35 25.79 C16.25 42.04, 22.19 76.28, 29.98 96.79 C37.77 117.3, 53.92 140.2, 58.06 148.84" stroke="#1e1e1e" stroke-width="1" fill="none"></path></g><g transform="translate(507.4247489171926 449.3924156902784) rotate(0 28.5068544020682 75.05375886968997)"><path d="M35.48 128.99 C43.12 134.42, 47.93 141.77, 59.89 148.78 M34.23 128.7 C41.05 133.71, 45.61 138.85, 57.78 148.49" stroke="#1e1e1e" stroke-width="1" fill="none"></path></g><g transform="translate(507.4247489171926 449.3924156902784) rotate(0 28.5068544020682 75.05375886968997)"><path d="M53.28 118.76 C56.12 126.81, 56.1 136.94, 59.89 148.78 M52.02 118.48 C54.88 125.81, 55.52 133.2, 57.78 148.49" stroke="#1e1e1e" stroke-width="1" fill="none"></path></g></g><mask id="mask-WOY-WgPZt4FsoURN_Yvya"><rect x="0" y="0" fill="#fff" width="663.8005108141496" height="699.116913902508"></rect><rect x="479.40638724257224" y="501.22151090887905" fill="#000" width="98.87997436523438" height="20" opacity="1"></rect></mask><g transform="translate(479.4063872425721 501.22151090887917) rotate(0 56.52521607668865 23.224663651089344)"><text x="49.43998718261719" y="0" font-family="HanziPen SC, HanziPen Remote, Virgil, KaiTi, Segoe UI Emoji" font-size="16px" fill="#1e1e1e" text-anchor="middle" style="white-space: pre;" direction="ltr" dominant-baseline="text-before-edge">团队自由工作</text></g><g mask="url(#mask-HANkxKjmlcpHckj9WPy8y)" stroke-linecap="round"><g transform="translate(546.1514759955487 410.191566812664) rotate(0 83.39180798965054 50.26227213180741)"><path d="M-0.72 -0.03 C12.84 6.82, 53.13 24.3, 81.17 41.01 C109.21 57.71, 153.22 90.41, 167.51 100.22 M1.1 -1.09 C15.04 5.45, 55.8 22.34, 83.38 39.46 C110.95 56.58, 152.69 91.39, 166.56 101.61" stroke="#1e1e1e" stroke-width="1" fill="none"></path></g><g transform="translate(546.1514759955487 410.191566812664) rotate(0 83.39180798965054 50.26227213180741)"><path d="M137.97 90.77 C147.94 94.6, 154.47 96.18, 166.16 100.6 M137.46 92.53 C143.71 94.28, 150.05 95.92, 165.6 100.65" stroke="#1e1e1e" stroke-width="1" fill="none"></path></g><g transform="translate(546.1514759955487 410.191566812664) rotate(0 83.39180798965054 50.26227213180741)"><path d="M150.57 74.58 C156.96 82.93, 159.91 89.1, 166.16 100.6 M150.07 76.34 C153.74 81.42, 157.49 86.37, 165.6 100.65" stroke="#1e1e1e" stroke-width="1" fill="none"></path></g></g><mask id="mask-HANkxKjmlcpHckj9WPy8y"><rect x="0" y="0" fill="#fff" width="814.0053468639803" height="610.2517018537691"></rect><rect x="554.131706237793" y="440.10147094726557" fill="#000" width="148.31996154785156" height="20" opacity="1"></rect></mask><g transform="translate(554.131706237793 440.1014709472656) rotate(0 75.41157774740628 20.35236799720579)"><text x="74.15998077392578" y="0" font-family="HanziPen SC, HanziPen Remote, Virgil, KaiTi, Segoe UI Emoji" font-size="16px" fill="#1e1e1e" text-anchor="middle" style="white-space: pre;" direction="ltr" dominant-baseline="text-before-edge">通过它支持多个客户</text></g><g mask="url(#mask-CmuoynhE1XObQtGia0Udx)" stroke-linecap="round"><g transform="translate(511.1689957767845 379.5234346612168) rotate(0 196.07490312368913 -19.948332573967605)"><path d="M0.89 0.77 C20.38 -4.14, 70.91 -22.61, 117.52 -29.52 C164.14 -36.43, 234.82 -40.67, 280.57 -40.67 C326.32 -40.66, 373.42 -31.37, 392.02 -29.51 M-0.1 0.13 C19.22 -4.6, 70.22 -21.56, 116.86 -28.16 C163.49 -34.75, 233.84 -39.36, 279.74 -39.45 C325.63 -39.53, 373.75 -30.35, 392.25 -28.67" stroke="#1e1e1e" stroke-width="1" fill="none"></path></g><g transform="translate(511.1689957767845 379.5234346612168) rotate(0 196.07490312368913 -19.948332573967605)"><path d="M364.25 -21.23 C372.7 -24.86, 383.22 -27, 391.41 -28.49 M362.81 -22.12 C370.2 -24.9, 377.79 -25.55, 392.16 -28.75" stroke="#1e1e1e" stroke-width="1" fill="none"></path></g><g transform="translate(511.1689957767845 379.5234346612168) rotate(0 196.07490312368913 -19.948332573967605)"><path d="M366.89 -41.58 C374.4 -38.05, 384 -33.04, 391.41 -28.49 M365.45 -42.47 C372.17 -39.96, 379.07 -35.35, 392.16 -28.75" stroke="#1e1e1e" stroke-width="1" fill="none"></path></g></g><mask id="mask-CmuoynhE1XObQtGia0Udx"><rect x="0" y="0" fill="#fff" width="1003.2265170776279" height="519.9987431017305"></rect><rect x="612.8129851199395" y="331.8155500136346" fill="#000" width="196.2239532470703" height="20" opacity="1"></rect></mask><g transform="translate(612.8129851199394 331.8155500136346) rotate(0 94.43091378053424 27.7595520736146)"><text x="98.11197662353516" y="0" font-family="HanziPen SC, HanziPen Remote, Virgil, KaiTi, Segoe UI Emoji" font-size="16px" fill="#1e1e1e" text-anchor="middle" style="white-space: pre;" direction="ltr" dominant-baseline="text-before-edge">单向重叠（作为“跟随者”）</text></g><g mask="url(#mask-3ViOAiQ5yxY_UzBhg_ZYo)" stroke-linecap="round"><g transform="translate(493.49229259474805 371.52830014404964) rotate(0 198.51118583034742 -78.28566731324545)"><path d="M0.57 -0.29 C15 -13.08, 44.51 -57.94, 87.09 -75.64 C129.68 -93.34, 204.36 -93.43, 256.11 -106.5 C307.86 -119.57, 373.76 -146.14, 397.61 -154.06 M-0.59 -1.49 C13.72 -13.63, 44 -56.73, 86.61 -74.52 C129.23 -92.31, 203.29 -94.6, 255.12 -108.23 C306.95 -121.85, 373.75 -148.78, 397.61 -156.28" stroke="#1e1e1e" stroke-width="1" fill="none"></path></g><g transform="translate(493.49229259474805 371.52830014404964) rotate(0 198.51118583034742 -78.28566731324545)"><path d="M373.96 -135.74 C380.9 -144.59, 392.12 -151.22, 398.67 -154.45 M373.87 -136.67 C382.3 -144.01, 391.49 -151.17, 397.54 -156.88" stroke="#1e1e1e" stroke-width="1" fill="none"></path></g><g transform="translate(493.49229259474805 371.52830014404964) rotate(0 198.51118583034742 -78.28566731324545)"><path d="M367.13 -155.1 C376.59 -157.33, 390.16 -157.31, 398.67 -154.45 M367.04 -156.02 C377.85 -156.47, 389.48 -156.7, 397.54 -156.88" stroke="#1e1e1e" stroke-width="1" fill="none"></path></g></g><mask id="mask-3ViOAiQ5yxY_UzBhg_ZYo"><rect x="0" y="0" fill="#fff" width="991.5750302939273" height="626.2258281445913"></rect><rect x="538.4340733482309" y="258.2614914665725" fill="#000" width="253.79180908203125" height="40" opacity="1"></rect></mask><g transform="translate(538.4340733482309 258.2614914665725) rotate(0 153.5694050768646 34.98114136423172)"><text x="126.89590454101562" y="0" font-family="HanziPen SC, HanziPen Remote, Virgil, KaiTi, Segoe UI Emoji" font-size="16px" fill="#1e1e1e" text-anchor="middle" style="white-space: pre;" direction="ltr" dominant-baseline="text-before-edge">把类似上下文作为</text><text x="126.89590454101562" y="20" font-family="HanziPen SC, HanziPen Remote, Virgil, KaiTi, Segoe UI Emoji" font-size="16px" fill="#1e1e1e" text-anchor="middle" style="white-space: pre;" direction="ltr" dominant-baseline="text-before-edge">Customer/Supplier Teams 关联到一起</text></g><g mask="url(#mask-AL9x7OsD2CMwvNOxpcGOy)" stroke-linecap="round"><g transform="translate(436.4377455923826 366.01104641819876) rotate(0 167.28529062054724 -125.58705414441891)"><path d="M0.06 0.07 C5.97 -14.92, 10.33 -58.89, 34.71 -89.14 C59.1 -119.39, 96.17 -154.39, 146.37 -181.41 C196.57 -208.43, 304.39 -239.5, 335.9 -251.25 M-1.36 -0.94 C4.51 -15.79, 9.73 -57.23, 34.17 -87.64 C58.61 -118.05, 94.98 -156.29, 145.27 -183.38 C195.56 -210.47, 303.95 -238.77, 335.93 -250.18" stroke="#1e1e1e" stroke-width="1" fill="none"></path></g><g transform="translate(436.4377455923826 366.01104641819876) rotate(0 167.28529062054724 -125.58705414441891)"><path d="M312.22 -230.69 C317.59 -237.42, 324.63 -241.41, 335.81 -251.62 M312.5 -232.67 C317.78 -235.4, 324.42 -239.75, 335.55 -249.64" stroke="#1e1e1e" stroke-width="1" fill="none"></path></g><g transform="translate(436.4377455923826 366.01104641819876) rotate(0 167.28529062054724 -125.58705414441891)"><path d="M306.08 -250.27 C313.06 -252.3, 321.57 -251.57, 335.81 -251.62 M306.37 -252.25 C313.02 -250.23, 321.15 -249.84, 335.55 -249.64" stroke="#1e1e1e" stroke-width="1" fill="none"></path></g></g><mask id="mask-AL9x7OsD2CMwvNOxpcGOy"><rect x="0" y="0" fill="#fff" width="872.7360040402281" height="717.1820701040847"></rect><rect x="406.88481914130637" y="215.36583407097118" fill="#000" width="230.71994018554688" height="20" opacity="1"></rect></mask><g transform="translate(406.88481914130637 215.36583407097112) rotate(0 196.8382170716235 25.058158202808727)"><text x="115.35997009277344" y="0" font-family="HanziPen SC, HanziPen Remote, Virgil, KaiTi, Segoe UI Emoji" font-size="16px" fill="#1e1e1e" text-anchor="middle" style="white-space: pre;" direction="ltr" dominant-baseline="text-before-edge">通过它把类似上下文重叠在一起</text></g><g mask="url(#mask-JDX9LOjdioY5pqH0j6YAP)" stroke-linecap="round"><g transform="translate(903.4189960058206 501.8235419036622) rotate(0 68.87282073269 39.90245383521949)"><path d="M-0.49 -1 C7.59 3.59, 34.09 17.86, 48.02 27.51 C61.94 37.16, 68 48.13, 83.04 56.91 C98.07 65.7, 129.06 76.29, 138.22 80.21 M1.45 1.1 C9.97 5.88, 36.9 19.44, 50.38 28.98 C63.86 38.52, 67.68 49.68, 82.33 58.32 C96.97 66.96, 128.64 77.11, 138.24 80.8" stroke="#1e1e1e" stroke-width="1" fill="none"></path></g><g transform="translate(903.4189960058206 501.8235419036622) rotate(0 68.87282073269 39.90245383521949)"><path d="M106.58 79.84 C115.81 81.21, 124.11 80.25, 136.6 79.75 M107.29 80.7 C114.71 80.05, 121.69 80.93, 138.52 81.47" stroke="#1e1e1e" stroke-width="1" fill="none"></path></g><g transform="translate(903.4189960058206 501.8235419036622) rotate(0 68.87282073269 39.90245383521949)"><path d="M113.5 60.53 C120.93 66.89, 127.44 70.94, 136.6 79.75 M114.22 61.38 C120.07 65.36, 125.39 70.87, 138.52 81.47" stroke="#1e1e1e" stroke-width="1" fill="none"></path></g></g><mask id="mask-JDX9LOjdioY5pqH0j6YAP"><rect x="0" y="0" fill="#fff" width="1142.0914338354169" height="683.0157466511032"></rect><rect x="935.5108792333788" y="534.3063788292503" fill="#000" width="65.91998291015625" height="20" opacity="1"></rect></mask><g transform="translate(935.5108792333788 534.3063788292502) rotate(0 36.780937505131874 7.419616909631486)"><text x="32.959991455078125" y="0" font-family="HanziPen SC, HanziPen Remote, Virgil, KaiTi, Segoe UI Emoji" font-size="16px" fill="#1e1e1e" text-anchor="middle" style="white-space: pre;" direction="ltr" dominant-baseline="text-before-edge">形式化为</text></g></svg>