<svg version="1.1" xmlns="http://www.w3.org/2000/svg" viewBox="0 0 1007.5477905273438 685.3002014160156" width="2015.0955810546875" height="1370.6004028320312">
  <!-- svg-source:excalidraw -->
  
  <defs>
    <style class="style-fonts">
      @font-face {
        font-family: "Virgil";
        src: url("https://unpkg.com/revedraw@1.0.0-alpha.7/dist/excalidraw-assets/Virgil.woff2");
      }
      @font-face {
        font-family: "Cascadia";
        src: url("https://unpkg.com/revedraw@1.0.0-alpha.7/dist/excalidraw-assets/Cascadia.woff2");
      }
    </style>
    
  </defs>
  <rect x="0" y="0" width="1007.5477905273438" height="685.3002014160156" fill="#ffffff"></rect><g stroke-linecap="round" transform="translate(10 198.54901123046875) rotate(0 97.41769409179688 42.404449462890625)"><path d="M102.59 0.67 C115.98 0.3, 131.79 2.5, 143.93 5.41 C156.08 8.33, 167.22 13.17, 175.46 18.18 C183.69 23.2, 190.64 29.44, 193.34 35.5 C196.04 41.56, 195.35 48.84, 191.65 54.54 C187.95 60.24, 180.53 65.26, 171.15 69.69 C161.77 74.13, 148.25 78.53, 135.36 81.17 C122.47 83.81, 107.9 85.73, 93.84 85.54 C79.77 85.34, 63.53 83.18, 50.95 80.01 C38.36 76.83, 26.59 71.62, 18.32 66.48 C10.04 61.34, 3.72 55.24, 1.31 49.17 C-1.1 43.1, 0.09 35.92, 3.87 30.06 C7.66 24.2, 14.66 18.36, 24.01 14.01 C33.36 9.66, 44.85 6.16, 59.97 3.97 C75.1 1.78, 103.4 0.93, 114.77 0.85 C126.15 0.77, 128.37 2.82, 128.2 3.48 M123.7 0.34 C137 1.25, 149.84 5.2, 160.35 9.44 C170.86 13.67, 181.2 19.78, 186.74 25.75 C192.29 31.73, 194.19 39.22, 193.62 45.29 C193.05 51.37, 189.77 57.14, 183.31 62.2 C176.84 67.26, 166.17 71.88, 154.84 75.64 C143.5 79.4, 129.01 83.47, 115.29 84.76 C101.56 86.04, 86.16 84.9, 72.49 83.34 C58.82 81.77, 44.09 79.23, 33.26 75.36 C22.43 71.49, 12.96 65.84, 7.52 60.12 C2.08 54.39, -0.15 47.34, 0.63 41.03 C1.4 34.72, 5.35 27.75, 12.16 22.28 C18.97 16.82, 30.34 11.97, 41.46 8.24 C52.58 4.52, 65.01 1.2, 78.89 -0.04 C92.77 -1.29, 117.56 0.42, 124.75 0.77 C131.94 1.12, 122.65 1.01, 122.04 2.07" stroke="#1e1e1e" stroke-width="1" fill="none"></path></g><g transform="translate(67.44501507298531 230.96898692566717) rotate(0 40.08796691894531 10)"><text x="40.08796691894531" y="0" font-family="HanziPen SC, HanziPen Remote, Virgil, KaiTi, Segoe UI Emoji" font-size="16px" fill="#1e1e1e" text-anchor="middle" style="white-space: pre;" direction="ltr" dominant-baseline="text-before-edge">Core Domain</text></g><g stroke-linecap="round" transform="translate(474.65234375 108.21273803710938) rotate(0 97.41769409179688 42.404449462890625)"><path d="M128.3 2.91 C141.55 3.92, 155.5 7.13, 165.55 11.21 C175.6 15.3, 183.63 21.43, 188.6 27.42 C193.58 33.41, 196.7 40.97, 195.38 47.16 C194.06 53.36, 188.16 59.62, 180.68 64.62 C173.21 69.61, 162.36 73.93, 150.55 77.11 C138.74 80.3, 123.73 82.97, 109.85 83.73 C95.96 84.49, 80.59 83.56, 67.22 81.69 C53.85 79.82, 39.7 76.49, 29.62 72.49 C19.54 68.49, 11.73 63.38, 6.73 57.72 C1.74 52.06, -1.57 44.66, -0.35 38.53 C0.87 32.4, 6.64 26.2, 14.06 20.92 C21.48 15.64, 32.28 10.43, 44.16 6.85 C56.03 3.26, 70.96 0.12, 85.31 -0.58 C99.65 -1.27, 122.42 2.09, 130.22 2.68 C138.03 3.27, 132.72 2.34, 132.14 2.95 M95.35 -0.37 C108.94 -1.48, 125.04 -0.04, 137.96 2.66 C150.87 5.36, 163.65 10.91, 172.83 15.81 C182.01 20.72, 189.7 26.06, 193.05 32.09 C196.41 38.11, 196.02 45.78, 192.97 51.96 C189.92 58.14, 183.2 64.39, 174.74 69.19 C166.29 74, 154.68 78.18, 142.24 80.79 C129.8 83.4, 114.1 84.78, 100.12 84.85 C86.14 84.92, 71.47 83.89, 58.34 81.23 C45.21 78.57, 30.37 73.77, 21.35 68.9 C12.32 64.04, 7.58 57.9, 4.19 52.02 C0.79 46.14, -1.65 39.27, 0.98 33.63 C3.62 28, 11.26 22.97, 19.98 18.22 C28.7 13.47, 40.72 8.16, 53.3 5.15 C65.88 2.14, 88.33 1, 95.46 0.18 C102.6 -0.64, 95.88 -0.24, 96.09 0.25" stroke="#1e1e1e" stroke-width="1" fill="none"></path></g><g transform="translate(519.6653672458369 140.6327137323078) rotate(0 52.51995849609375 10)"><text x="52.51995849609375" y="0" font-family="HanziPen SC, HanziPen Remote, Virgil, KaiTi, Segoe UI Emoji" font-size="16px" fill="#1e1e1e" text-anchor="middle" style="white-space: pre;" direction="ltr" dominant-baseline="text-before-edge">Highlighted Core</text></g><g stroke-linecap="round" transform="translate(451.55242919921875 224.79916381835938) rotate(0 97.41769409179688 42.404449462890625)"><path d="M89.88 0.01 C103.19 -1.31, 119.44 0.43, 132.35 2.59 C145.26 4.76, 157.82 8.48, 167.34 13.01 C176.86 17.54, 185.22 23.94, 189.48 29.79 C193.74 35.64, 194.81 41.98, 192.91 48.11 C191 54.25, 185.6 61.59, 178.05 66.59 C170.5 71.59, 159.64 75.1, 147.61 78.12 C135.57 81.13, 119.9 84.04, 105.84 84.7 C91.77 85.36, 76.41 84.19, 63.21 82.09 C50.01 79.99, 36.56 76.68, 26.65 72.12 C16.73 67.56, 7.97 60.8, 3.7 54.73 C-0.57 48.67, -0.91 41.81, 1.05 35.72 C3.01 29.62, 7.71 23.14, 15.47 18.16 C23.23 13.18, 34.63 8.78, 47.59 5.86 C60.55 2.94, 84.68 1.5, 93.24 0.62 C101.8 -0.25, 98.75 0.12, 98.96 0.6 M119.56 1.2 C133.01 1.66, 148.39 5.21, 159.55 9.12 C170.7 13.04, 180.5 19.03, 186.49 24.68 C192.47 30.32, 195.69 36.77, 195.46 43 C195.22 49.24, 191.31 56.87, 185.07 62.09 C178.84 67.31, 169.23 70.5, 158.05 74.32 C146.87 78.14, 131.92 83.59, 118.01 85 C104.09 86.4, 88.23 84.3, 74.58 82.73 C60.92 81.16, 46.67 79.22, 36.07 75.57 C25.46 71.92, 16.88 66.34, 10.95 60.83 C5.02 55.33, 0.67 48.57, 0.51 42.55 C0.35 36.54, 4.01 30.09, 9.99 24.75 C15.96 19.41, 25.54 14.46, 36.38 10.5 C47.22 6.55, 60.95 2.63, 75.04 1.04 C89.12 -0.54, 113.6 0.93, 120.89 0.99 C128.18 1.05, 119.2 0.93, 118.77 1.41" stroke="#1e1e1e" stroke-width="1" fill="none"></path></g><g transform="translate(497.9094697238643 257.2191395135578) rotate(0 51.175941467285156 10)"><text x="51.175941467285156" y="0" font-family="HanziPen SC, HanziPen Remote, Virgil, KaiTi, Segoe UI Emoji" font-size="16px" fill="#1e1e1e" text-anchor="middle" style="white-space: pre;" direction="ltr" dominant-baseline="text-before-edge">Segregated Core</text></g><g stroke-linecap="round" transform="translate(334.0529479980469 362.50225830078125) rotate(0 97.41769409179688 42.404449462890625)"><path d="M60.47 2.24 C72.28 -0.53, 88.6 -0.98, 102.73 -0.37 C116.86 0.24, 133 2.82, 145.22 5.88 C157.45 8.94, 168.05 13.01, 176.09 17.98 C184.14 22.96, 191.01 29.71, 193.51 35.73 C196.01 41.75, 194.89 48.42, 191.07 54.08 C187.25 59.75, 180.09 65.13, 170.59 69.73 C161.09 74.33, 147.33 79.34, 134.08 81.69 C120.84 84.05, 105.21 84.26, 91.13 83.86 C77.04 83.46, 61.75 82.23, 49.55 79.29 C37.35 76.35, 25.84 71.14, 17.91 66.2 C9.98 61.25, 4.36 55.52, 1.97 49.64 C-0.42 43.75, -0.12 36.72, 3.56 30.88 C7.24 25.04, 13.23 19.28, 24.04 14.6 C34.86 9.91, 59.68 4.88, 68.45 2.77 C77.21 0.66, 76.08 1.4, 76.62 1.91 M133.66 3.02 C146.75 4.5, 160.87 9.46, 170.13 13.84 C179.39 18.22, 185.1 23.6, 189.24 29.3 C193.37 35, 197 41.92, 194.92 48.05 C192.85 54.18, 184.94 60.64, 176.79 66.08 C168.64 71.51, 158.06 77.47, 146.03 80.65 C134.01 83.84, 118.65 84.98, 104.64 85.21 C90.62 85.43, 74.9 84.45, 61.92 82.01 C48.93 79.57, 36.12 75.28, 26.74 70.56 C17.35 65.85, 9.88 59.24, 5.61 53.72 C1.35 48.19, -0.75 43.32, 1.14 37.39 C3.03 31.47, 9.08 23.28, 16.95 18.16 C24.83 13.04, 36.4 9.67, 48.41 6.67 C60.42 3.66, 74.67 0.74, 89.03 0.15 C103.39 -0.44, 127.25 2.73, 134.58 3.11 C141.9 3.49, 134.03 1.96, 132.99 2.43" stroke="#1e1e1e" stroke-width="1" fill="none"></path></g><g transform="translate(371.30598461644234 394.92223399597964) rotate(0 60.279945373535156 10)"><text x="60.279945373535156" y="0" font-family="HanziPen SC, HanziPen Remote, Virgil, KaiTi, Segoe UI Emoji" font-size="16px" fill="#1e1e1e" text-anchor="middle" style="white-space: pre;" direction="ltr" dominant-baseline="text-before-edge">Generic Subdomain</text></g><g stroke-linecap="round" transform="translate(131.71347045898438 464.68804931640625) rotate(0 97.41769409179688 42.404449462890625)"><path d="M129.49 2.39 C142.59 3.84, 156.61 7.99, 166.57 12.4 C176.52 16.81, 184.77 23.17, 189.23 28.85 C193.69 34.53, 194.83 40.59, 193.31 46.46 C191.8 52.33, 187.59 58.89, 180.13 64.07 C172.67 69.25, 160.52 74.13, 148.56 77.53 C136.59 80.93, 122.3 83.56, 108.32 84.48 C94.35 85.41, 77.97 85.1, 64.72 83.06 C51.47 81.01, 38.65 76.75, 28.83 72.2 C19 67.65, 10.39 61.43, 5.76 55.76 C1.13 50.08, -0.6 44.12, 1.04 38.16 C2.69 32.2, 8.2 25.13, 15.61 19.98 C23.01 14.83, 33.71 10.43, 45.46 7.28 C57.21 4.12, 71.22 1.64, 86.13 1.03 C101.04 0.42, 126.11 2.96, 134.94 3.62 C143.77 4.28, 139.68 4.39, 139.13 5 M54.46 3.2 C65.96 -0.08, 82.75 -0.08, 97.22 0.12 C111.68 0.32, 128.43 1.7, 141.25 4.4 C154.07 7.1, 165.6 11.4, 174.16 16.32 C182.71 21.24, 189.65 27.76, 192.58 33.91 C195.52 40.06, 195.12 47.41, 191.76 53.24 C188.41 59.07, 180.89 64.35, 172.43 68.9 C163.97 73.44, 153.57 77.95, 141.01 80.52 C128.44 83.08, 111.2 84.51, 97.05 84.3 C82.89 84.08, 68.73 81.6, 56.1 79.24 C43.46 76.88, 30.15 74.64, 21.23 70.15 C12.3 65.65, 5.91 58.69, 2.56 52.27 C-0.79 45.85, -1.83 37.81, 1.13 31.63 C4.09 25.46, 11.5 19.82, 20.33 15.22 C29.16 10.61, 48.25 5.53, 54.09 4 C59.94 2.48, 54.65 5.23, 55.42 6.06" stroke="#1e1e1e" stroke-width="1" fill="none"></path></g><g transform="translate(194.57448589818063 487.10802501160464) rotate(0 34.671966552734375 20)"><text x="34.671966552734375" y="0" font-family="HanziPen SC, HanziPen Remote, Virgil, KaiTi, Segoe UI Emoji" font-size="16px" fill="#1e1e1e" text-anchor="middle" style="white-space: pre;" direction="ltr" dominant-baseline="text-before-edge">Cohesive </text><text x="34.671966552734375" y="20" font-family="HanziPen SC, HanziPen Remote, Virgil, KaiTi, Segoe UI Emoji" font-size="16px" fill="#1e1e1e" text-anchor="middle" style="white-space: pre;" direction="ltr" dominant-baseline="text-before-edge">Mechanism</text></g><g stroke-linecap="round" transform="translate(802.71240234375 176.01425170898438) rotate(0 97.41769409179688 42.404449462890625)"><path d="M93.59 0.13 C106.7 -0.69, 123.08 0.31, 135.94 2.73 C148.81 5.15, 161.53 9.97, 170.8 14.66 C180.07 19.35, 187.77 24.87, 191.58 30.87 C195.39 36.86, 196.37 44.42, 193.65 50.6 C190.94 56.78, 183.94 62.98, 175.3 67.95 C166.66 72.92, 154.2 77.5, 141.82 80.44 C129.45 83.37, 115 85.44, 101.05 85.58 C87.1 85.72, 70.97 83.9, 58.13 81.26 C45.3 78.63, 33.06 74.39, 24.03 69.77 C15 65.15, 7.61 59.41, 3.97 53.55 C0.33 47.69, -0.37 40.58, 2.19 34.63 C4.75 28.68, 10.95 22.95, 19.32 17.83 C27.69 12.72, 38.25 6.75, 52.4 3.93 C66.55 1.12, 93.93 1.43, 104.24 0.93 C114.55 0.42, 114.35 0.31, 114.27 0.89 M143.67 5.18 C156.28 7.18, 168.49 12.04, 176.97 16.78 C185.46 21.52, 192.18 27.27, 194.58 33.63 C196.99 40, 195.37 48.94, 191.41 54.99 C187.46 61.04, 180.17 65.38, 170.84 69.95 C161.51 74.51, 148.58 79.91, 135.43 82.39 C122.29 84.87, 105.73 85.22, 91.96 84.81 C78.19 84.4, 64.95 83.06, 52.83 79.94 C40.7 76.82, 27.98 71.23, 19.23 66.09 C10.48 60.95, 3.07 55.1, 0.32 49.1 C-2.43 43.1, -1.17 35.95, 2.73 30.09 C6.63 24.22, 14.16 18.49, 23.7 13.92 C33.25 9.36, 46.87 4.81, 60.01 2.7 C73.14 0.58, 88.62 0.87, 102.52 1.24 C116.42 1.6, 137.01 4.11, 143.43 4.88 C149.86 5.65, 141.95 5.36, 141.07 5.88" stroke="#1e1e1e" stroke-width="1" fill="none"></path></g><g transform="translate(855.5094453098018 208.4342274041828) rotate(0 44.735939025878906 10)"><text x="44.735939025878906" y="0" font-family="HanziPen SC, HanziPen Remote, Virgil, KaiTi, Segoe UI Emoji" font-size="16px" fill="#1e1e1e" text-anchor="middle" style="white-space: pre;" direction="ltr" dominant-baseline="text-before-edge">Abstract Core</text></g><g stroke-linecap="round" transform="translate(708.4066772460938 450.5677795410156) rotate(0 97.41769409179688 42.404449462890625)"><path d="M61.96 3.38 C74.01 0.67, 91.57 -0.4, 105.77 -0.1 C119.97 0.19, 134.97 1.91, 147.16 5.14 C159.34 8.37, 170.97 14.03, 178.89 19.26 C186.81 24.5, 192.78 30.42, 194.68 36.54 C196.58 42.67, 194.73 50.06, 190.29 56.02 C185.85 61.98, 177.67 67.89, 168.03 72.3 C158.4 76.7, 145.57 80.37, 132.48 82.44 C119.39 84.5, 103.46 85.26, 89.49 84.69 C75.52 84.13, 60.99 82.26, 48.66 79.06 C36.33 75.85, 23.32 70.69, 15.51 65.48 C7.69 60.27, 3.69 53.83, 1.76 47.8 C-0.16 41.77, -0.21 34.91, 3.96 29.31 C8.12 23.72, 16.5 18.68, 26.73 14.25 C36.95 9.82, 58.35 4.61, 65.31 2.73 C72.28 0.84, 67.89 2.4, 68.51 2.94 M141.47 4.17 C154.28 6.05, 164.89 10.99, 173.57 15.59 C182.24 20.2, 190.39 25.5, 193.52 31.79 C196.65 38.08, 195.68 47.08, 192.34 53.35 C189 59.63, 182.53 65.11, 173.47 69.45 C164.41 73.79, 150.89 76.96, 137.98 79.4 C125.07 81.84, 110.08 83.94, 96.02 84.1 C81.96 84.26, 66.25 82.73, 53.63 80.35 C41.02 77.97, 29 74.44, 20.33 69.82 C11.66 65.21, 4.36 58.82, 1.59 52.66 C-1.18 46.5, 0.44 39.24, 3.74 32.88 C7.03 26.51, 12.73 19.36, 21.38 14.47 C30.03 9.57, 43.03 5.7, 55.64 3.5 C68.25 1.3, 83.14 1.25, 97.04 1.27 C110.94 1.28, 132.01 3.06, 139.05 3.6 C146.1 4.15, 140 3.71, 139.31 4.51" stroke="#1e1e1e" stroke-width="1" fill="none"></path></g><g transform="translate(764.7396699191768 482.987755236214) rotate(0 41.199989318847656 10)"><text x="41.199989318847656" y="0" font-family="HanziPen SC, HanziPen Remote, Virgil, KaiTi, Segoe UI Emoji" font-size="16px" fill="#1e1e1e" text-anchor="middle" style="white-space: pre;" direction="ltr" dominant-baseline="text-before-edge">声明式设计</text></g><g stroke-linecap="round" transform="translate(634.7088012695312 590.4913024902344) rotate(0 97.41769409179688 42.404449462890625)"><path d="M108.54 1.05 C122.14 0.99, 137.14 3.42, 149.14 6.52 C161.13 9.61, 172.89 14.38, 180.52 19.61 C188.16 24.85, 193.4 31.75, 194.95 37.92 C196.51 44.08, 194.59 50.75, 189.85 56.61 C185.1 62.48, 176.47 68.94, 166.48 73.08 C156.49 77.23, 143.29 79.46, 129.91 81.51 C116.54 83.55, 100.35 85.99, 86.24 85.36 C72.12 84.73, 57.13 81.08, 45.23 77.7 C33.33 74.33, 22.1 70.18, 14.83 65.12 C7.56 60.06, 3.13 53.43, 1.62 47.36 C0.1 41.29, 1.26 34.41, 5.74 28.69 C10.22 22.98, 18.69 17.31, 28.51 13.08 C38.32 8.85, 50.28 5.37, 64.65 3.31 C79.02 1.26, 104.99 0.93, 114.73 0.75 C124.47 0.56, 123.32 1.56, 123.11 2.19 M131.78 2.65 C145.17 3.8, 157.98 7.18, 167.41 11.36 C176.84 15.55, 184.04 21.94, 188.37 27.78 C192.71 33.62, 194.93 40.25, 193.41 46.39 C191.88 52.54, 186.54 59.4, 179.24 64.63 C171.94 69.85, 161.4 74.23, 149.6 77.76 C137.8 81.28, 122.61 85.05, 108.42 85.79 C94.24 86.52, 78.12 84.43, 64.47 82.17 C50.83 79.91, 36.53 76.72, 26.54 72.23 C16.55 67.74, 8.65 61.24, 4.56 55.25 C0.46 49.25, 0.29 42.2, 1.99 36.26 C3.68 30.32, 7.43 24.76, 14.74 19.62 C22.05 14.48, 33.66 8.53, 45.83 5.43 C57.99 2.34, 73.79 1.5, 87.72 1.06 C101.65 0.62, 122.41 2.24, 129.4 2.79 C136.38 3.34, 130.07 3.67, 129.61 4.38" stroke="#1e1e1e" stroke-width="1" fill="none"></path></g><g transform="translate(670.5858536960322 612.9112781854328) rotate(0 61.65592956542969 20)"><text x="61.65592956542969" y="0" font-family="HanziPen SC, HanziPen Remote, Virgil, KaiTi, Segoe UI Emoji" font-size="16px" fill="#1e1e1e" text-anchor="middle" style="white-space: pre;" direction="ltr" dominant-baseline="text-before-edge">Intention-Revealing</text><text x="61.65592956542969" y="20" font-family="HanziPen SC, HanziPen Remote, Virgil, KaiTi, Segoe UI Emoji" font-size="16px" fill="#1e1e1e" text-anchor="middle" style="white-space: pre;" direction="ltr" dominant-baseline="text-before-edge">Interface</text></g><g stroke-linecap="round" transform="translate(384.869873046875 10) rotate(0 97.41769409179688 42.404449462890625)"><path d="M116.06 0.83 C129.76 1.26, 144.88 4.49, 156.19 8.15 C167.5 11.81, 177.54 17.4, 183.91 22.78 C190.29 28.16, 193.91 34.26, 194.44 40.43 C194.98 46.6, 192.58 53.96, 187.14 59.81 C181.71 65.66, 172.63 71.68, 161.82 75.53 C151 79.38, 136.04 81.38, 122.27 82.91 C108.51 84.44, 92.83 85.93, 79.2 84.71 C65.58 83.5, 51.8 79.35, 40.53 75.63 C29.27 71.91, 18.44 67.72, 11.61 62.4 C4.77 57.07, 0.14 49.81, -0.49 43.68 C-1.12 37.54, 2.07 31, 7.83 25.56 C13.59 20.13, 23.4 15.08, 34.08 11.05 C44.76 7.01, 57.16 2.84, 71.91 1.37 C86.66 -0.1, 113.23 1.95, 122.58 2.23 C131.94 2.51, 128.64 2.64, 128.05 3.06 M119.24 2.15 C132.53 2.86, 146.2 6.1, 156.98 9.93 C167.77 13.76, 177.6 19.87, 183.95 25.14 C190.3 30.4, 194.76 35.44, 195.07 41.53 C195.38 47.62, 191.87 55.85, 185.81 61.69 C179.75 67.54, 169.65 72.86, 158.73 76.6 C147.81 80.34, 133.92 82.99, 120.3 84.13 C106.69 85.28, 90.9 84.95, 77.04 83.46 C63.18 81.98, 48.48 78.92, 37.15 75.22 C25.82 71.52, 15.25 66.93, 9.05 61.27 C2.86 55.61, -0.03 47.49, -0.02 41.24 C-0.01 34.98, 3.05 28.87, 9.14 23.73 C15.22 18.59, 25.62 14.18, 36.49 10.42 C47.36 6.66, 60.84 2.53, 74.35 1.15 C87.87 -0.22, 110.01 1.81, 117.58 2.17 C125.15 2.52, 120.13 2.89, 119.79 3.28" stroke="#1e1e1e" stroke-width="1" fill="none"></path></g><g transform="translate(434.75489056126656 32.41997569519841) rotate(0 47.64796447753909 20)"><text x="47.64796447753906" y="0" font-family="HanziPen SC, HanziPen Remote, Virgil, KaiTi, Segoe UI Emoji" font-size="16px" fill="#1e1e1e" text-anchor="middle" style="white-space: pre;" direction="ltr" dominant-baseline="text-before-edge">Domain Vision </text><text x="47.64796447753906" y="20" font-family="HanziPen SC, HanziPen Remote, Virgil, KaiTi, Segoe UI Emoji" font-size="16px" fill="#1e1e1e" text-anchor="middle" style="white-space: pre;" direction="ltr" dominant-baseline="text-before-edge">Statement</text></g><g mask="url(#mask-sNhNYuLclM3b53Btsm0j9)" stroke-linecap="round"><g transform="translate(129.16323301805306 285.9797911409972) rotate(0 30.959891979330536 90.57827859851844)"><path d="M-0.87 -0.03 C1.39 15.14, 2.48 60, 13.09 90.22 C23.7 120.44, 54.38 166.07, 62.79 181.29 M0.88 -1.09 C3.07 13.81, 2.21 57.96, 12.42 88.52 C22.63 119.07, 53.49 166.6, 62.13 182.25" stroke="#1e1e1e" stroke-width="1" fill="none"></path></g><g transform="translate(129.16323301805306 285.9797911409972) rotate(0 30.959891979330536 90.57827859851844)"><path d="M38.91 164.08 C46.21 168.69, 49.8 174.88, 61.41 181.69 M38.2 163.87 C45.21 169.99, 53.22 176.1, 61.25 181.52" stroke="#1e1e1e" stroke-width="1" fill="none"></path></g><g transform="translate(129.16323301805306 285.9797911409972) rotate(0 30.959891979330536 90.57827859851844)"><path d="M56.58 153.65 C59.2 160.85, 58.17 169.77, 61.41 181.69 M55.87 153.44 C57.39 162.6, 59.96 171.92, 61.25 181.52" stroke="#1e1e1e" stroke-width="1" fill="none"></path></g></g><mask id="mask-sNhNYuLclM3b53Btsm0j9"><rect x="0" y="0" fill="#fff" width="291.7378845214844" height="567.9491271972656"></rect><rect x="92.27803039550781" y="365.40734863281244" fill="#000" width="98.87997436523438" height="20" opacity="1"></rect></mask><g transform="translate(92.27803039550781 365.4073486328125) rotate(0 67.84509460187579 11.150721106703116)"><text x="49.43998718261719" y="0" font-family="HanziPen SC, HanziPen Remote, Virgil, KaiTi, Segoe UI Emoji" font-size="16px" fill="#1e1e1e" text-anchor="middle" style="white-space: pre;" direction="ltr" dominant-baseline="text-before-edge">不会受其干扰</text></g><g mask="url(#mask-SEFtf3bnwwt0LUw7Tq1aj)" stroke-linecap="round"><g transform="translate(195.62252925264613 260.2072745469893) rotate(0 70.23526056886986 66.97677578805943)"><path d="M-0.88 0.67 C6.99 12.29, 24.48 46.46, 48.19 68.68 C71.89 90.9, 125.76 123.3, 141.35 133.98 M0.86 -0.02 C8.43 11.3, 23.6 44.68, 46.95 66.69 C70.31 88.71, 125.67 120.9, 141 132.06" stroke="#1e1e1e" stroke-width="1" fill="none"></path></g><g transform="translate(195.62252925264613 260.2072745469893) rotate(0 70.23526056886986 66.97677578805943)"><path d="M112.92 124.25 C123.36 129.33, 135.46 132.62, 140.33 132.34 M110.81 124.69 C120.41 127.16, 131.34 129.2, 140.54 132.48" stroke="#1e1e1e" stroke-width="1" fill="none"></path></g><g transform="translate(195.62252925264613 260.2072745469893) rotate(0 70.23526056886986 66.97677578805943)"><path d="M124.18 107.1 C130.17 118.66, 137.95 128.52, 140.33 132.34 M122.07 107.54 C128.19 115.64, 135.48 123.21, 140.54 132.48" stroke="#1e1e1e" stroke-width="1" fill="none"></path></g></g><mask id="mask-SEFtf3bnwwt0LUw7Tq1aj"><rect x="0" y="0" fill="#fff" width="436.1835087745421" height="493.3709731487399"></rect><rect x="194.91673278808594" y="318.6226806640625" fill="#000" width="98.87997436523438" height="20" opacity="1"></rect></mask><g transform="translate(194.91673278808594 318.6226806640625) rotate(0 70.94105703343006 8.561369670986238)"><text x="49.43998718261719" y="0" font-family="HanziPen SC, HanziPen Remote, Virgil, KaiTi, Segoe UI Emoji" font-size="16px" fill="#1e1e1e" text-anchor="middle" style="white-space: pre;" direction="ltr" dominant-baseline="text-before-edge">不会受其干扰</text></g><g mask="url(#mask-f-GxS9bwp1xaiaqRIbY58)" stroke-linecap="round"><g transform="translate(208.7268936138663 233.87859791208462) rotate(0 118.21670721166758 16.85877685909061)"><path d="M0.99 -0.58 C11.61 2.94, 34.58 17.12, 64.56 21.16 C94.53 25.2, 152.32 21.55, 180.83 23.65 C209.34 25.75, 226.78 32.03, 235.63 33.77 M0.06 1.72 C10.49 5.35, 33.86 18.23, 63.93 22.09 C94 25.95, 151.73 22.86, 180.47 24.89 C209.21 26.93, 227.18 32.77, 236.38 34.3" stroke="#1e1e1e" stroke-width="1" fill="none"></path></g><g transform="translate(208.7268936138663 233.87859791208462) rotate(0 118.21670721166758 16.85877685909061)"><path d="M207.8 39.07 C217.15 37.71, 229.15 36.63, 234.57 33 M208.66 37.23 C215.11 36.02, 221.99 36.6, 235.6 34.84" stroke="#1e1e1e" stroke-width="1" fill="none"></path></g><g transform="translate(208.7268936138663 233.87859791208462) rotate(0 118.21670721166758 16.85877685909061)"><path d="M211.84 20.45 C219.69 26.08, 230.18 31.94, 234.57 33 M212.71 18.61 C218.12 21.84, 224.04 26.83, 235.6 34.84" stroke="#1e1e1e" stroke-width="1" fill="none"></path></g></g><mask id="mask-f-GxS9bwp1xaiaqRIbY58"><rect x="0" y="0" fill="#fff" width="543.3923438955904" height="368.72682088534555"></rect><rect x="299.4681244673337" y="247.00671286375336" fill="#000" width="65.91998291015625" height="20" opacity="1"></rect></mask><g transform="translate(299.4681244673337 247.00671286375336) rotate(0 27.47547635820017 3.7306619074218617)"><text x="32.959991455078125" y="0" font-family="HanziPen SC, HanziPen Remote, Virgil, KaiTi, Segoe UI Emoji" font-size="16px" fill="#1e1e1e" text-anchor="middle" style="white-space: pre;" direction="ltr" dominant-baseline="text-before-edge">重打包为</text></g><g mask="url(#mask-Qtr4G9v-Sef5aLL1bwFs0)" stroke-linecap="round"><g transform="translate(203.2586104916317 226.71907379617272) rotate(0 145.3519319412631 -23.93313706109801)"><path d="M-0.17 -1.08 C13.11 -3.19, 47.11 -9.58, 80.81 -12.38 C114.5 -15.17, 166.72 -11.77, 201.99 -17.85 C237.26 -23.93, 277.08 -43.62, 292.43 -48.84 M-1.72 0.97 C11.27 -1.54, 45.89 -10.83, 79.66 -14.3 C113.44 -17.78, 165.47 -14.28, 200.92 -19.89 C236.37 -25.5, 276.99 -43.09, 292.36 -47.96" stroke="#1e1e1e" stroke-width="1" fill="none"></path></g><g transform="translate(203.2586104916317 226.71907379617272) rotate(0 145.3519319412631 -23.93313706109801)"><path d="M267.52 -29.36 C278.96 -37.25, 288.36 -44.82, 291.65 -46.21 M270.12 -29.1 C274.58 -32.93, 280.69 -37.91, 293.2 -48.13" stroke="#1e1e1e" stroke-width="1" fill="none"></path></g><g transform="translate(203.2586104916317 226.71907379617272) rotate(0 145.3519319412631 -23.93313706109801)"><path d="M260.56 -48.66 C274.78 -48.95, 286.92 -48.93, 291.65 -46.21 M263.16 -48.41 C269.24 -47.52, 277.02 -47.86, 293.2 -48.13" stroke="#1e1e1e" stroke-width="1" fill="none"></path></g></g><mask id="mask-Qtr4G9v-Sef5aLL1bwFs0"><rect x="0" y="0" fill="#fff" width="596.2815250394601" height="375.1306831157709"></rect><rect x="287.6283738448227" y="202.82143399808825" fill="#000" width="115.35997009277344" height="20" opacity="1"></rect></mask><g transform="translate(287.6283738448227 202.8214339980883) rotate(0 60.98216858807211 -0.035497263013567704)"><text x="57.67998504638672" y="0" font-family="HanziPen SC, HanziPen Remote, Virgil, KaiTi, Segoe UI Emoji" font-size="16px" fill="#1e1e1e" text-anchor="middle" style="white-space: pre;" direction="ltr" dominant-baseline="text-before-edge">通过它指明内容</text></g><g mask="url(#mask-JaDbEXT-1i-7NKYct_jWD)" stroke-linecap="round"><g transform="translate(174.89465573990432 203.05593173463802) rotate(0 122.44000690150216 -58.14292197952499)"><path d="M-0.76 0.75 C9.63 -3.76, 30.49 -14.51, 62.16 -27.05 C93.83 -39.58, 158.67 -59.45, 189.25 -74.44 C219.83 -89.44, 236.08 -110.05, 245.64 -117.03 M1.05 0.09 C11.32 -4.73, 30.16 -15.94, 61.34 -28.68 C92.53 -41.42, 157.45 -61.78, 188.16 -76.35 C218.88 -90.91, 236.09 -109.52, 245.63 -116.08" stroke="#1e1e1e" stroke-width="1" fill="none"></path></g><g transform="translate(174.89465573990432 203.05593173463802) rotate(0 122.44000690150216 -58.14292197952499)"><path d="M231.37 -89.97 C236.11 -98.63, 240.34 -105.71, 245.13 -115.28 M229.53 -90.51 C235.06 -99.38, 241.34 -107.69, 245.26 -115.91" stroke="#1e1e1e" stroke-width="1" fill="none"></path></g><g transform="translate(174.89465573990432 203.05593173463802) rotate(0 122.44000690150216 -58.14292197952499)"><path d="M218.49 -105.94 C226.88 -109.98, 234.78 -112.52, 245.13 -115.28 M216.64 -106.48 C226.36 -109.99, 236.94 -112.98, 245.26 -115.91" stroke="#1e1e1e" stroke-width="1" fill="none"></path></g></g><mask id="mask-JaDbEXT-1i-7NKYct_jWD"><rect x="0" y="0" fill="#fff" width="521.0177917480469" height="419.7898114673229"></rect><rect x="244.41174795563418" y="142.8559582402736" fill="#000" width="115.35997009277344" height="20" opacity="1"></rect></mask><g transform="translate(244.4117479556342 142.8559582402736) rotate(0 52.92291468577227 2.0570515148394364)"><text x="57.67998504638672" y="0" font-family="HanziPen SC, HanziPen Remote, Virgil, KaiTi, Segoe UI Emoji" font-size="16px" fill="#1e1e1e" text-anchor="middle" style="white-space: pre;" direction="ltr" dominant-baseline="text-before-edge">通过它指明方向</text></g><g mask="url(#mask-HvjL-EttoAysuyfyZAMId)" stroke-linecap="round"><g transform="translate(647.4898919943428 278.2413388879489) rotate(0 80.80496093498948 -19.752678005224737)"><path d="M-0.03 0.89 C16.78 -0.14, 73.24 -0.26, 100.43 -6.85 C127.62 -13.44, 152.5 -33.25, 163.11 -38.66 M-1.5 0.31 C15.27 -1, 72.69 -1.76, 100 -8.54 C127.3 -15.32, 151.54 -34.88, 162.35 -40.39" stroke="#1e1e1e" stroke-width="1" fill="none"></path></g><g transform="translate(647.4898919943428 278.2413388879489) rotate(0 80.80496093498948 -19.752678005224737)"><path d="M145.18 -15.28 C150.14 -23.09, 155.62 -27.67, 163.19 -40.85 M143.26 -16.05 C148.31 -22.65, 151.64 -27.47, 162.35 -39.72" stroke="#1e1e1e" stroke-width="1" fill="none"></path></g><g transform="translate(647.4898919943428 278.2413388879489) rotate(0 80.80496093498948 -19.752678005224737)"><path d="M134.44 -32.77 C142.15 -35.95, 150.47 -35.9, 163.19 -40.85 M132.52 -33.54 C140.04 -36.35, 145.77 -37.28, 162.35 -39.72" stroke="#1e1e1e" stroke-width="1" fill="none"></path></g></g><mask id="mask-HvjL-EttoAysuyfyZAMId"><rect x="0" y="0" fill="#fff" width="910.5885506873273" height="418.05448663268965"></rect><rect x="722.2334060668945" y="260.56390380859375" fill="#000" width="49.43998718261719" height="20" opacity="1"></rect></mask><g transform="translate(722.2334060668945 260.56390380859375) rotate(0 6.06144686243772 -2.07524292586956)"><text x="24.719993591308594" y="0" font-family="HanziPen SC, HanziPen Remote, Virgil, KaiTi, Segoe UI Emoji" font-size="16px" fill="#1e1e1e" text-anchor="middle" style="white-space: pre;" direction="ltr" dominant-baseline="text-before-edge">精炼为</text></g><g mask="url(#mask-_--vbQmHHXY0LYyRrOMtq)" stroke-linecap="round"><g transform="translate(597.9679528591303 307.2393649743717) rotate(0 92.87765776711939 71.86041666152582)"><path d="M1.11 1.12 C9.62 7.29, 28.48 24.09, 51.73 38.08 C74.98 52.08, 118.35 67.83, 140.62 85.1 C162.9 102.38, 177.91 132.53, 185.38 141.74 M0.23 0.66 C9.05 6.98, 30.6 22.47, 53.9 36.2 C77.2 49.93, 118.09 65.23, 140.03 83.04 C161.97 100.85, 178.21 133.53, 185.52 143.07" stroke="#1e1e1e" stroke-width="1" fill="none"></path></g><g transform="translate(597.9679528591303 307.2393649743717) rotate(0 92.87765776711939 71.86041666152582)"><path d="M163.48 123.22 C171.02 131.7, 179.63 137.25, 186.22 142.82 M160.84 125.8 C167.3 129.11, 172.75 132.08, 186 143.44" stroke="#1e1e1e" stroke-width="1" fill="none"></path></g><g transform="translate(597.9679528591303 307.2393649743717) rotate(0 92.87765776711939 71.86041666152582)"><path d="M180.73 112.1 C182.24 124.69, 184.73 134.18, 186.22 142.82 M178.08 114.67 C180.65 120.42, 182.29 125.84, 186 143.44" stroke="#1e1e1e" stroke-width="1" fill="none"></path></g></g><mask id="mask-_--vbQmHHXY0LYyRrOMtq"><rect x="0" y="0" fill="#fff" width="883.5461745320238" height="548.5624173031906"></rect><rect x="670.6038667760995" y="357.9896161468905" fill="#000" width="49.43998718261719" height="20" opacity="1"></rect></mask><g transform="translate(670.6038667760994 357.98961614689057) rotate(0 20.241743850150158 21.11016548900696)"><text x="24.719993591308594" y="0" font-family="HanziPen SC, HanziPen Remote, Virgil, KaiTi, Segoe UI Emoji" font-size="16px" fill="#1e1e1e" text-anchor="middle" style="white-space: pre;" direction="ltr" dominant-baseline="text-before-edge">精炼为</text></g><g mask="url(#mask-rvs8AJGJoaIS8hhLFce73)" stroke-linecap="round"><g transform="translate(532.028530926005 404.7873470458669) rotate(0 96.29863335446441 28.458624481680857)"><path d="M0.25 0.96 C10.25 0.56, 35.41 -7.82, 60.44 -2.9 C85.47 2.02, 128.22 19.87, 150.42 30.47 C172.63 41.07, 186.39 55.54, 193.67 60.7 M-1.08 0.42 C9.27 0.28, 37.66 -6.53, 62.72 -1.28 C87.79 3.96, 127.53 21.44, 149.3 31.88 C171.08 42.33, 185.59 56.39, 193.37 61.36" stroke="#1e1e1e" stroke-width="1" fill="none"></path></g><g transform="translate(532.028530926005 404.7873470458669) rotate(0 96.29863335446441 28.458624481680857)"><path d="M169.26 52.27 C176.53 55.07, 185.25 57.02, 191.97 60.34 M166.95 52.77 C174.13 55.04, 182.37 58.01, 193.56 60.58" stroke="#1e1e1e" stroke-width="1" fill="none"></path></g><g transform="translate(532.028530926005 404.7873470458669) rotate(0 96.29863335446441 28.458624481680857)"><path d="M180.24 37.55 C183.75 45.33, 188.78 52.23, 191.97 60.34 M177.93 38.05 C181.97 44.6, 187.05 51.81, 193.56 60.58" stroke="#1e1e1e" stroke-width="1" fill="none"></path></g></g><mask id="mask-rvs8AJGJoaIS8hhLFce73"><rect x="0" y="0" fill="#fff" width="826.7572288203414" height="569.3769803558921"></rect><rect x="614.2600088873603" y="406.61729964297217" fill="#000" width="49.43998718261719" height="20" opacity="1"></rect></mask><g transform="translate(614.2600088873604 406.6172996429722) rotate(0 14.067155393109033 26.628671884575596)"><text x="24.719993591308594" y="0" font-family="HanziPen SC, HanziPen Remote, Virgil, KaiTi, Segoe UI Emoji" font-size="16px" fill="#1e1e1e" text-anchor="middle" style="white-space: pre;" direction="ltr" dominant-baseline="text-before-edge">精炼为</text></g><g mask="url(#mask-YKRvRf7sU0y3vOYzL_jXN)" stroke-linecap="round"><g transform="translate(322.2215270996094 524.8642883300781) rotate(0 174.67446565194706 37.00894558121206)"><path d="M0.81 -0.14 C16.94 4.43, 56.02 22.55, 97.42 27.38 C138.83 32.21, 207.21 21.09, 249.24 28.85 C291.26 36.61, 332.7 66.33, 349.57 73.95 M-0.22 -1.26 C15.78 3.45, 55.63 23.39, 97.05 28.53 C138.48 33.68, 206.24 21.82, 248.31 29.61 C290.38 37.4, 332.66 68.24, 349.47 75.28" stroke="#1e1e1e" stroke-width="1" fill="none"></path></g><g transform="translate(322.2215270996094 524.8642883300781) rotate(0 174.67446565194706 37.00894558121206)"><path d="M319.55 72.76 C329.1 71.77, 339.12 72.7, 350.19 75.68 M319.98 71.55 C331.95 73.18, 343.65 73.98, 349.96 75.66" stroke="#1e1e1e" stroke-width="1" fill="none"></path></g><g transform="translate(322.2215270996094 524.8642883300781) rotate(0 174.67446565194706 37.00894558121206)"><path d="M329.29 54.7 C335.38 60.19, 341.93 67.53, 350.19 75.68 M329.72 53.49 C337.96 62.21, 345.88 70.01, 349.96 75.66" stroke="#1e1e1e" stroke-width="1" fill="none"></path></g></g><mask id="mask-YKRvRf7sU0y3vOYzL_jXN"><rect x="0" y="0" fill="#fff" width="772.4669392246045" height="698.3752418062414"></rect><rect x="430.57978652356405" y="541.8265860728893" fill="#000" width="131.8399658203125" height="20" opacity="1"></rect></mask><g transform="translate(430.57978652356405 541.8265860728893) rotate(0 66.31620622799238 20.046647838400872)"><text x="65.91998291015625" y="0" font-family="HanziPen SC, HanziPen Remote, Virgil, KaiTi, Segoe UI Emoji" font-size="16px" fill="#1e1e1e" text-anchor="middle" style="white-space: pre;" direction="ltr" dominant-baseline="text-before-edge">通过它来展现能力</text></g></svg>