<svg version="1.1" xmlns="http://www.w3.org/2000/svg" viewBox="0 0 830.0378581568599 561.4112321332098" width="1660.0757163137198" height="1122.8224642664195">
  <!-- svg-source:excalidraw -->
  
  <defs>
    <style class="style-fonts">
      @font-face {
        font-family: "Virgil";
        src: url("https://unpkg.com/revedraw@1.0.0-alpha.7/dist/excalidraw-assets/Virgil.woff2");
      }
      @font-face {
        font-family: "Cascadia";
        src: url("https://unpkg.com/revedraw@1.0.0-alpha.7/dist/excalidraw-assets/Cascadia.woff2");
      }
    </style>
    
  </defs>
  <rect x="0" y="0" width="830.0378581568599" height="561.4112321332098" fill="#ffffff"></rect><g stroke-linecap="round" transform="translate(538.2269439697266 40.147621293365944) rotate(0 97.41769409179688 42.404449462890625)"><path d="M81.12 0.65 C93.94 -1.17, 110.33 -0.32, 123.89 1.35 C137.44 3.02, 152.09 6.58, 162.46 10.66 C172.82 14.74, 180.83 20.29, 186.07 25.81 C191.32 31.33, 194.56 37.79, 193.93 43.78 C193.29 49.78, 188.78 56.44, 182.28 61.79 C175.78 67.14, 166.16 72.25, 154.9 75.87 C143.65 79.49, 128.74 82.15, 114.74 83.5 C100.73 84.85, 84.48 85.45, 70.89 83.98 C57.3 82.5, 43.57 78.86, 33.21 74.65 C22.84 70.43, 14.21 64.35, 8.7 58.69 C3.19 53.03, -0.28 46.82, 0.15 40.67 C0.58 34.53, 4.55 27.41, 11.28 21.83 C18.01 16.24, 27.98 10.76, 40.53 7.16 C53.07 3.57, 77.71 1.45, 86.56 0.25 C95.41 -0.96, 93.44 -0.86, 93.64 -0.05 M93.88 0.53 C106.93 -0.41, 123.47 0.15, 136.37 2.72 C149.27 5.3, 162.05 11.24, 171.28 15.98 C180.5 20.72, 188.28 25.53, 191.7 31.16 C195.11 36.78, 194.34 43.81, 191.78 49.73 C189.22 55.65, 184.52 61.57, 176.34 66.69 C168.15 71.81, 155.27 77.44, 142.66 80.44 C130.05 83.44, 115.05 84.57, 100.68 84.66 C86.3 84.75, 69.49 83.37, 56.41 80.99 C43.32 78.61, 31.12 75.01, 22.17 70.36 C13.23 65.71, 5.97 59.05, 2.72 53.08 C-0.53 47.1, -0.13 40.75, 2.68 34.52 C5.5 28.29, 11.26 20.67, 19.61 15.7 C27.96 10.73, 40.27 7.12, 52.77 4.7 C65.28 2.28, 87.5 1.6, 94.63 1.18 C101.76 0.76, 95.55 1.41, 95.55 2.17" stroke="#1e1e1e" stroke-width="1" fill="none"></path></g><g transform="translate(583.4239655734737 62.56759698856436) rotate(0 52.335960388183594 20)"><text x="52.335960388183594" y="0" font-family="HanziPen SC, HanziPen Remote, Virgil, KaiTi, Segoe UI Emoji" font-size="16px" fill="#1e1e1e" text-anchor="middle" style="white-space: pre;" direction="ltr" dominant-baseline="text-before-edge">Simple Bounded </text><text x="52.335960388183594" y="20" font-family="HanziPen SC, HanziPen Remote, Virgil, KaiTi, Segoe UI Emoji" font-size="16px" fill="#1e1e1e" text-anchor="middle" style="white-space: pre;" direction="ltr" dominant-baseline="text-before-edge">Context</text></g><g stroke-linecap="round" transform="translate(446.80238342285156 277.0759355023503) rotate(0 97.41769409179688 42.404449462890625)"><path d="M66.54 2.56 C79 -0.07, 96.61 -0.72, 110.59 0.03 C124.57 0.79, 138.82 3.75, 150.42 7.07 C162.01 10.39, 172.8 14.88, 180.16 19.93 C187.52 24.98, 193.2 31.18, 194.57 37.35 C195.94 43.52, 193.32 51.21, 188.37 56.97 C183.43 62.72, 174.96 67.49, 164.88 71.87 C154.81 76.25, 141.24 81.08, 127.95 83.24 C114.66 85.39, 99.06 85.82, 85.14 84.81 C71.22 83.8, 56.18 80.69, 44.41 77.16 C32.65 73.63, 22.02 68.83, 14.57 63.64 C7.13 58.44, 1.12 51.98, -0.23 46 C-1.59 40.02, 1.58 33.53, 6.44 27.74 C11.3 21.96, 18.03 15.52, 28.92 11.28 C39.8 7.05, 63.55 3.82, 71.74 2.31 C79.94 0.81, 77.5 1.61, 78.07 2.25 M92.54 0.79 C105.94 -0.05, 122.3 1.3, 135.46 3.68 C148.63 6.07, 162.24 10.69, 171.51 15.09 C180.78 19.49, 187.52 24.26, 191.09 30.08 C194.66 35.91, 195.5 43.64, 192.93 50.05 C190.37 56.45, 183.88 63.34, 175.72 68.5 C167.55 73.67, 156.38 78.1, 143.94 81.06 C131.5 84.01, 115.05 86.38, 101.07 86.25 C87.1 86.11, 73 83.08, 60.09 80.23 C47.19 77.38, 33.14 73.49, 23.66 69.16 C14.18 64.82, 6.75 60.02, 3.24 54.24 C-0.28 48.47, -0.18 40.49, 2.55 34.5 C5.27 28.51, 11.28 23.25, 19.57 18.3 C27.86 13.34, 40.03 7.6, 52.29 4.78 C64.55 1.96, 86.27 2.18, 93.16 1.39 C100.04 0.61, 93.79 -0.3, 93.62 0.06" stroke="#1e1e1e" stroke-width="1" fill="none"></path></g><g transform="translate(485.65543377415725 309.4959111975487) rotate(0 58.679931640625 10)"><text x="58.679931640625" y="0" font-family="HanziPen SC, HanziPen Remote, Virgil, KaiTi, Segoe UI Emoji" font-size="16px" fill="#1e1e1e" text-anchor="middle" style="white-space: pre;" direction="ltr" dominant-baseline="text-before-edge">Open Host Service</text></g><g stroke-linecap="round" transform="translate(224.78370666503906 409.31131758242844) rotate(0 97.41769409179688 42.404449462890625)"><path d="M115.1 0.96 C128.29 1.37, 143.02 4.33, 154.43 7.75 C165.83 11.18, 176.9 16.04, 183.53 21.52 C190.16 27, 193.72 34.5, 194.2 40.62 C194.69 46.74, 191.97 52.51, 186.43 58.24 C180.89 63.98, 171.51 70.79, 160.95 75.03 C150.38 79.26, 136.59 82.27, 123.05 83.64 C109.51 85.02, 93.52 84.57, 79.73 83.27 C65.94 81.96, 51.79 79.39, 40.3 75.81 C28.82 72.24, 17.43 67.12, 10.81 61.83 C4.2 56.54, 1.19 50.24, 0.61 44.09 C0.04 37.94, 2.02 30.38, 7.37 24.91 C12.73 19.45, 22.17 15.1, 32.75 11.3 C43.32 7.5, 55.23 3.58, 70.83 2.12 C86.42 0.66, 115.46 2.24, 126.3 2.53 C137.15 2.82, 136.44 3.35, 135.92 3.85 M122.23 1.9 C135.56 2.5, 149.23 5.03, 159.84 8.89 C170.45 12.75, 180.16 19.09, 185.9 25.05 C191.65 31.01, 194.54 38.32, 194.3 44.66 C194.06 50.99, 190.92 57.57, 184.45 63.08 C177.99 68.59, 166.63 74.41, 155.49 77.7 C144.36 80.99, 131.4 82.03, 117.64 82.81 C103.89 83.58, 86.8 83.58, 72.94 82.35 C59.08 81.12, 45.05 79.24, 34.49 75.43 C23.92 71.63, 15.16 65.05, 9.58 59.5 C3.99 53.95, 0.62 48.27, 0.99 42.15 C1.36 36.02, 5.49 28.12, 11.78 22.76 C18.07 17.39, 27.59 13.73, 38.74 9.94 C49.88 6.15, 65.07 1.57, 78.64 0.01 C92.22 -1.55, 113.08 0.31, 120.17 0.61 C127.26 0.9, 121.15 1.11, 121.18 1.78" stroke="#1e1e1e" stroke-width="1" fill="none"></path></g><g transform="translate(287.2127228976924 441.73129327762683) rotate(0 35.103965759277344 10)"><text x="35.103965759277344" y="0" font-family="HanziPen SC, HanziPen Remote, Virgil, KaiTi, Segoe UI Emoji" font-size="16px" fill="#1e1e1e" text-anchor="middle" style="white-space: pre;" direction="ltr" dominant-baseline="text-before-edge">Conformist</text></g><g stroke-linecap="round" transform="translate(63.61430358886719 404.83844770938157) rotate(0 97.41769409179688 42.404449462890625)"><path d="M110.19 -0.53 C123.64 -0.34, 138.42 3.56, 150.11 6.9 C161.8 10.24, 173 14.19, 180.31 19.54 C187.63 24.89, 192.61 32.69, 194.02 39 C195.42 45.32, 193.58 51.92, 188.76 57.43 C183.93 62.94, 175.13 67.99, 165.06 72.06 C155 76.13, 141.84 79.86, 128.36 81.83 C114.87 83.8, 98.09 84.55, 84.15 83.88 C70.2 83.21, 56.48 81.19, 44.7 77.81 C32.93 74.43, 20.99 68.7, 13.49 63.62 C5.98 58.54, 1.07 53.21, -0.32 47.33 C-1.72 41.45, 0.08 34.13, 5.12 28.34 C10.16 22.54, 19.64 17.02, 29.91 12.56 C40.18 8.1, 52.08 3.6, 66.74 1.6 C81.39 -0.39, 108.03 0.45, 117.83 0.59 C127.63 0.74, 125.83 1.62, 125.53 2.45 M115.83 0.86 C129.2 1.72, 143.88 5.74, 155.28 9.62 C166.67 13.5, 177.75 18.65, 184.21 24.15 C190.68 29.64, 193.55 36.86, 194.09 42.58 C194.62 48.3, 193.09 53.28, 187.43 58.45 C181.76 63.62, 171.04 69.33, 160.09 73.58 C149.14 77.84, 135.15 82.31, 121.74 84 C108.34 85.68, 93.28 84.83, 79.66 83.69 C66.03 82.56, 51.29 80.85, 40.01 77.18 C28.74 73.51, 18.66 67.04, 12.02 61.69 C5.37 56.34, 0.67 51.28, 0.14 45.06 C-0.38 38.84, 3.38 30.31, 8.86 24.37 C14.34 18.42, 22.33 13.26, 33.02 9.37 C43.71 5.48, 58.91 2.58, 72.97 1.01 C87.04 -0.55, 110.13 -0.31, 117.43 -0.02 C124.72 0.27, 117.17 1.74, 116.75 2.74" stroke="#1e1e1e" stroke-width="1" fill="none"></path></g><g transform="translate(114.43534863011422 437.25842340458) rotate(0 46.711936950683594 10)"><text x="46.711936950683594" y="0" font-family="HanziPen SC, HanziPen Remote, Virgil, KaiTi, Segoe UI Emoji" font-size="16px" fill="#1e1e1e" text-anchor="middle" style="white-space: pre;" direction="ltr" dominant-baseline="text-before-edge">Seperate Ways</text></g><g stroke-linecap="round" transform="translate(163.4379119873047 338.9965592816472) rotate(0 97.41769409179688 42.404449462890625)"><path d="M55.25 3.15 C66.75 0.19, 83.51 0.37, 97.67 0.62 C111.83 0.87, 127.49 2.2, 140.2 4.65 C152.91 7.11, 165.15 10.72, 173.92 15.34 C182.7 19.97, 189.94 26.37, 192.88 32.4 C195.81 38.43, 194.74 45.44, 191.55 51.53 C188.35 57.62, 182.55 64.2, 173.71 68.95 C164.88 73.69, 151.5 77.21, 138.55 80 C125.61 82.79, 110.18 85.52, 96.03 85.71 C81.88 85.9, 66.17 83.85, 53.67 81.11 C41.17 78.37, 29.62 74.29, 21.04 69.28 C12.47 64.27, 5.3 57.19, 2.22 51.03 C-0.87 44.88, -0.76 38.26, 2.56 32.35 C5.88 26.44, 11.95 20.45, 22.15 15.58 C32.34 10.71, 55.32 5.36, 63.72 3.13 C72.12 0.89, 72.1 1.63, 72.52 2.17 M99.85 1.32 C113.23 0.86, 128.17 3.71, 140.83 6.08 C153.49 8.44, 167.23 11.07, 175.83 15.51 C184.43 19.94, 189.81 26.41, 192.44 32.7 C195.08 39, 194.84 47.19, 191.64 53.27 C188.44 59.36, 182.07 64.46, 173.26 69.21 C164.45 73.97, 151.59 79.26, 138.78 81.81 C125.97 84.36, 110.61 84.56, 96.38 84.52 C82.15 84.48, 66.05 84.43, 53.4 81.56 C40.74 78.7, 29.25 72.53, 20.46 67.31 C11.67 62.09, 3.56 56.18, 0.66 50.25 C-2.23 44.33, -0.79 37.7, 3.07 31.74 C6.93 25.77, 14.67 18.93, 23.82 14.46 C32.98 9.99, 45.27 7.18, 57.98 4.93 C70.69 2.69, 93.05 1.85, 100.11 1.01 C107.17 0.17, 100.74 -0.69, 100.36 -0.13" stroke="#1e1e1e" stroke-width="1" fill="none"></path></g><g transform="translate(212.1229401828486 361.41653497684564) rotate(0 48.84795379638672 20)"><text x="48.84795379638672" y="0" font-family="HanziPen SC, HanziPen Remote, Virgil, KaiTi, Segoe UI Emoji" font-size="16px" fill="#1e1e1e" text-anchor="middle" style="white-space: pre;" direction="ltr" dominant-baseline="text-before-edge">Anticorruption </text><text x="48.84795379638672" y="20" font-family="HanziPen SC, HanziPen Remote, Virgil, KaiTi, Segoe UI Emoji" font-size="16px" fill="#1e1e1e" text-anchor="middle" style="white-space: pre;" direction="ltr" dominant-baseline="text-before-edge">Layer</text></g><g stroke-linecap="round" transform="translate(421.59361267089844 134.68103804141282) rotate(0 97.41769409179688 42.404449462890625)"><path d="M53.84 4.8 C65.21 1.39, 81.81 -0.55, 95.96 -0.84 C110.11 -1.12, 126.09 0.48, 138.76 3.1 C151.43 5.73, 163.02 10.05, 171.99 14.91 C180.96 19.77, 189.24 26.33, 192.59 32.26 C195.95 38.2, 195.28 44.35, 192.13 50.51 C188.98 56.68, 182.37 64.19, 173.69 69.26 C165.01 74.34, 152.49 78.26, 140.04 80.96 C127.59 83.66, 112.96 85.56, 99.01 85.46 C85.06 85.35, 69.15 83.08, 56.33 80.33 C43.52 77.58, 30.96 73.65, 22.11 68.97 C13.27 64.29, 6.56 58.09, 3.27 52.27 C-0.03 46.45, -0.6 40.04, 2.32 34.05 C5.24 28.05, 11.43 21.43, 20.77 16.29 C30.11 11.15, 50.97 5.42, 58.35 3.21 C65.73 0.99, 64.16 2.25, 65.05 2.98 M139.56 2.8 C152.36 4.25, 163.71 9.37, 172.43 14.41 C181.14 19.44, 188.31 26.91, 191.84 33.01 C195.38 39.11, 196.39 44.96, 193.64 51 C190.88 57.03, 183.94 64.4, 175.3 69.25 C166.66 74.1, 154.57 77.27, 141.81 80.09 C129.05 82.91, 112.92 86.17, 98.74 86.16 C84.56 86.14, 69.74 82.95, 56.73 80.01 C43.72 77.08, 29.66 73.22, 20.68 68.55 C11.71 63.88, 5.75 57.98, 2.87 52 C0 46.02, 0.35 38.43, 3.45 32.68 C6.54 26.93, 12.92 22.04, 21.46 17.5 C30 12.96, 42.07 8.51, 54.68 5.43 C67.29 2.35, 83.38 -0.76, 97.12 -0.99 C110.86 -1.22, 130.17 3.25, 137.13 4.06 C144.09 4.87, 139.34 3.38, 138.88 3.88" stroke="#1e1e1e" stroke-width="1" fill="none"></path></g><g transform="translate(474.7266389133174 167.10101373661124) rotate(0 44.39995574951172 10)"><text x="44.39995574951172" y="0" font-family="HanziPen SC, HanziPen Remote, Virgil, KaiTi, Segoe UI Emoji" font-size="16px" fill="#1e1e1e" text-anchor="middle" style="white-space: pre;" direction="ltr" dominant-baseline="text-before-edge">Shared Kernel</text></g><g stroke-linecap="round" transform="translate(302.82533264160156 210.57559980899094) rotate(0 97.41769409179688 42.404449462890625)"><path d="M91.37 0.96 C104.6 0.24, 120.78 1.56, 133.95 3.88 C147.11 6.19, 160.85 10.47, 170.35 14.86 C179.86 19.24, 187.15 24.47, 190.99 30.2 C194.83 35.93, 195.69 43.13, 193.4 49.23 C191.12 55.34, 185.41 61.7, 177.27 66.83 C169.13 71.97, 156.93 77.08, 144.57 80.03 C132.21 82.99, 117.31 84.37, 103.09 84.59 C88.88 84.8, 72.34 83.72, 59.28 81.33 C46.21 78.94, 33.83 74.77, 24.7 70.27 C15.58 65.77, 8.28 60.24, 4.54 54.32 C0.8 48.4, -0.14 40.74, 2.28 34.76 C4.7 28.78, 11.16 23.42, 19.06 18.46 C26.95 13.5, 36.07 8.1, 49.67 5 C63.27 1.9, 90.48 0.37, 100.67 -0.14 C110.86 -0.66, 110.79 1.05, 110.81 1.89 M123.87 2.93 C137.06 3.81, 152.01 6.06, 162.33 9.78 C172.66 13.49, 180.41 19.48, 185.84 25.21 C191.26 30.94, 195.13 38.04, 194.87 44.15 C194.6 50.25, 190.85 56.23, 184.25 61.86 C177.65 67.5, 166.81 74.06, 155.27 77.94 C143.73 81.83, 128.87 84.45, 114.99 85.16 C101.11 85.88, 85.89 84.05, 71.98 82.24 C58.07 80.42, 42.06 78.33, 31.53 74.29 C21 70.26, 14.03 63.82, 8.78 58.02 C3.54 52.23, -0.42 45.54, 0.05 39.52 C0.52 33.49, 4.74 27.18, 11.61 21.85 C18.49 16.52, 29.61 11.01, 41.28 7.54 C52.94 4.06, 67.84 1.89, 81.6 1.02 C95.37 0.14, 116.83 2.19, 123.87 2.27 C130.91 2.36, 124.28 0.87, 123.85 1.54" stroke="#1e1e1e" stroke-width="1" fill="none"></path></g><g transform="translate(338.1263734103877 232.99557550418936) rotate(0 62.23194122314453 20)"><text x="62.23194122314453" y="0" font-family="HanziPen SC, HanziPen Remote, Virgil, KaiTi, Segoe UI Emoji" font-size="16px" fill="#1e1e1e" text-anchor="middle" style="white-space: pre;" direction="ltr" dominant-baseline="text-before-edge">Customer/Supplier </text><text x="62.23194122314453" y="20" font-family="HanziPen SC, HanziPen Remote, Virgil, KaiTi, Segoe UI Emoji" font-size="16px" fill="#1e1e1e" text-anchor="middle" style="white-space: pre;" direction="ltr" dominant-baseline="text-before-edge">Teams</text></g><g stroke-linecap="round"><g transform="translate(46.39947509765625 509.0806657269597) rotate(0 -0.24284656334161525 -249.13569495230914)"><path d="M0.84 0.81 C0.87 -82.21, -0.06 -416.13, -0.25 -499.08 M-0.18 0.19 C-0.29 -82.64, -1.15 -414.99, -1.32 -498.12" stroke="#1e1e1e" stroke-width="1" fill="none"></path></g><g transform="translate(46.39947509765625 509.0806657269597) rotate(0 -0.24284656334161525 -249.13569495230914)"><path d="M10.35 -470.37 C4.68 -477.73, 5.66 -483.09, -1.67 -497.31 M8.92 -470.35 C4.77 -480.31, 2.45 -488.5, -1.06 -498.23" stroke="#1e1e1e" stroke-width="1" fill="none"></path></g><g transform="translate(46.39947509765625 509.0806657269597) rotate(0 -0.24284656334161525 -249.13569495230914)"><path d="M-10.17 -470.32 C-10.47 -477.84, -4.12 -483.21, -1.67 -497.31 M-11.6 -470.31 C-8.69 -480.33, -3.94 -488.54, -1.06 -498.23" stroke="#1e1e1e" stroke-width="1" fill="none"></path></g></g><mask></mask><g stroke-linecap="round"><g transform="translate(47.6895751953125 509.4965592816472) rotate(0 385.70184138268235 0.48172854691534894)"><path d="M-0.94 0.8 C127.97 1.17, 643.53 1.49, 772.35 1.17 M0.76 0.18 C129.7 0.34, 643.42 -0.25, 771.88 -0.34" stroke="#1e1e1e" stroke-width="1" fill="none"></path></g><g transform="translate(47.6895751953125 509.4965592816472) rotate(0 385.70184138268235 0.48172854691534894)"><path d="M745.04 11.46 C751.5 8.94, 753.48 5.76, 771.28 -1.26 M743.62 9.65 C750.43 6.98, 756.07 4.18, 771.03 -0.3" stroke="#1e1e1e" stroke-width="1" fill="none"></path></g><g transform="translate(47.6895751953125 509.4965592816472) rotate(0 385.70184138268235 0.48172854691534894)"><path d="M745.02 -9.06 C751.31 -7.38, 753.29 -6.36, 771.28 -1.26 M743.61 -10.87 C750.49 -8.7, 756.13 -6.65, 771.03 -0.3" stroke="#1e1e1e" stroke-width="1" fill="none"></path></g></g><mask></mask><g transform="translate(10 135.82367720156907) rotate(0 8.239997863769531 100)"><text x="0" y="0" font-family="HanziPen SC, HanziPen Remote, Virgil, KaiTi, Segoe UI Emoji" font-size="16px" fill="#1e1e1e" text-anchor="start" style="white-space: pre;" direction="ltr" dominant-baseline="text-before-edge">对</text><text x="0" y="20" font-family="HanziPen SC, HanziPen Remote, Virgil, KaiTi, Segoe UI Emoji" font-size="16px" fill="#1e1e1e" text-anchor="start" style="white-space: pre;" direction="ltr" dominant-baseline="text-before-edge">所</text><text x="0" y="40" font-family="HanziPen SC, HanziPen Remote, Virgil, KaiTi, Segoe UI Emoji" font-size="16px" fill="#1e1e1e" text-anchor="start" style="white-space: pre;" direction="ltr" dominant-baseline="text-before-edge">有</text><text x="0" y="60" font-family="HanziPen SC, HanziPen Remote, Virgil, KaiTi, Segoe UI Emoji" font-size="16px" fill="#1e1e1e" text-anchor="start" style="white-space: pre;" direction="ltr" dominant-baseline="text-before-edge">相</text><text x="0" y="80" font-family="HanziPen SC, HanziPen Remote, Virgil, KaiTi, Segoe UI Emoji" font-size="16px" fill="#1e1e1e" text-anchor="start" style="white-space: pre;" direction="ltr" dominant-baseline="text-before-edge">关</text><text x="0" y="100" font-family="HanziPen SC, HanziPen Remote, Virgil, KaiTi, Segoe UI Emoji" font-size="16px" fill="#1e1e1e" text-anchor="start" style="white-space: pre;" direction="ltr" dominant-baseline="text-before-edge">系</text><text x="0" y="120" font-family="HanziPen SC, HanziPen Remote, Virgil, KaiTi, Segoe UI Emoji" font-size="16px" fill="#1e1e1e" text-anchor="start" style="white-space: pre;" direction="ltr" dominant-baseline="text-before-edge">统</text><text x="0" y="140" font-family="HanziPen SC, HanziPen Remote, Virgil, KaiTi, Segoe UI Emoji" font-size="16px" fill="#1e1e1e" text-anchor="start" style="white-space: pre;" direction="ltr" dominant-baseline="text-before-edge">的</text><text x="0" y="160" font-family="HanziPen SC, HanziPen Remote, Virgil, KaiTi, Segoe UI Emoji" font-size="16px" fill="#1e1e1e" text-anchor="start" style="white-space: pre;" direction="ltr" dominant-baseline="text-before-edge">控</text><text x="0" y="180" font-family="HanziPen SC, HanziPen Remote, Virgil, KaiTi, Segoe UI Emoji" font-size="16px" fill="#1e1e1e" text-anchor="start" style="white-space: pre;" direction="ltr" dominant-baseline="text-before-edge">制</text></g><g transform="translate(295.28717041015625 531.4112321332098) rotate(0 78.56797790527344 10)"><text x="0" y="0" font-family="HanziPen SC, HanziPen Remote, Virgil, KaiTi, Segoe UI Emoji" font-size="16px" fill="#1e1e1e" text-anchor="start" style="white-space: pre;" direction="ltr" dominant-baseline="text-before-edge">团队的沟通承诺/能力</text></g></svg>